<svg xmlns="http://www.w3.org/2000/svg" xmlns:xlink="http://www.w3.org/1999/xlink" width="2540" height="1280.89"><rect width="2540" height="1280.89" rx="0" ry="0" class="a"/><svg height="1280.89" viewBox="0 0 254 128.089" width="2540" xmlns="http://www.w3.org/2000/svg" xmlns:xlink="http://www.w3.org/1999/xlink"><style>@keyframes v{0%{transform:translateX(0)}.1%{transform:translateX(-508px)}3%{transform:translateX(-1016px)}4.8%{transform:translateX(-2032px)}8%{transform:translateX(-2286px)}8.9%{transform:translateX(-2794px)}9%{transform:translateX(-3302px)}9.1%{transform:translateX(-3810px)}11.1%{transform:translateX(-4826px)}21.9%{transform:translateX(-5080px)}23.6%{transform:translateX(-5588px)}25.4%{transform:translateX(-6096px)}27.2%{transform:translateX(-6604px)}28.9%{transform:translateX(-6858px)}30.1%{transform:translateX(-7112px)}30.7%{transform:translateX(-7620px)}32.8%{transform:translateX(-7874px)}34.9%{transform:translateX(-8128px)}37.9%{transform:translateX(-8636px)}39.7%{transform:translateX(-8890px)}41.4%{transform:translateX(-9398px)}44.1%{transform:translateX(-10160px)}45.6%{transform:translateX(-10414px)}47.4%{transform:translateX(-10668px)}49.2%{transform:translateX(-11176px)}51%{transform:translateX(-11684px)}52.7%{transform:translateX(-12192px)}54.4%{transform:translateX(-12446px)}55.6%{transform:translateX(-12700px)}56.1%{transform:translateX(-13208px)}57.8%{transform:translateX(-13462px)}60.1%{transform:translateX(-13716px)}61.8%{transform:translateX(-13970px)}64.5%{transform:translateX(-14732px)}66.3%{transform:translateX(-14986px)}67.3%{transform:translateX(-15494px)}69.1%{transform:translateX(-15748px)}70.8%{transform:translateX(-16256px)}72.5%{transform:translateX(-16764px)}74.3%{transform:translateX(-17272px)}75.5%{transform:translateX(-17526px)}76.1%{transform:translateX(-18034px)}77.8%{transform:translateX(-18542px)}79.6%{transform:translateX(-19050px)}81.5%{transform:translateX(-19558px)}83.5%{transform:translateX(-20066px)}85.1%{transform:translateX(-20320px)}86.7%{transform:translateX(-20828px)}88.2%{transform:translateX(-21336px)}90.8%{transform:translateX(-22098px)}98.1%{transform:translateX(-22606px)}99.1%{transform:translateX(-22860px)}99.9%{transform:translateX(-23114px)}to{transform:translateX(-24130px)}}.a{fill:#282d35}.c{fill:#bfbfbf}.d{white-space:pre}.e{fill:#b9c0cb;font-weight:700}.e,.f,.g{white-space:pre}.f{fill:#b9c0cb}.g{font-weight:700;text-decoration:underline}.g,.j{fill:#b9c0cb}.k{fill:#282d35;font-weight:700;text-decoration:underline;white-space:pre}.l{fill:#556b2f}.m,.n,.o,.p{fill:#0ff;white-space:pre}.n,.o,.p{fill:#ff7f24}.o,.p{fill:#98fb98}.p{fill:#0f0;font-weight:700}.q{fill:#4f94cd}.r,.s{fill:#282d35;white-space:pre}.s{fill:#00cdcd}</style><g font-family="Monaco,Consolas,Menlo,'Bitstream Vera Sans Mono','Powerline Symbols',monospace" font-size="1.67"><defs><symbol id="1"><path class="c" d="M0 0h14v2.171H0z"/><text y="1.67" class="d">-UUU:--- F1</text><path class="c" d="M14.028 0h12v2.171h-12z"/><text x="14.028" y="1.67" class="e">*scratch*</text><path class="c" d="M26.052 0h228v2.171h-228z"/><text x="26.052" y="1.67" class="d">All L1 (Fundamental) ------------------------------------------------------------------------------------------------------------------------------------------------------------------------------------------------------</text></symbol><symbol id="2"><text y="1.67" class="f">Turning</text><text x="8.016" y="1.67" class="f">on</text><text x="11.022" y="1.67" class="f">magit-auto-revert-mode...done</text></symbol><symbol id="3"><text y="1.67" class="g">For</text><text x="4.008" y="1.67" class="g">information</text><text x="16.032" y="1.67" class="g">about</text><text x="22.044" y="1.67" class="g">GNU</text><text x="26.052" y="1.67" class="g">Emacs</text><text x="32.064" y="1.67" class="g">and</text><text x="36.072" y="1.67" class="g">the</text><text x="40.08" y="1.67" class="g">GNU</text><text x="44.088" y="1.67" class="g">system,</text><text x="52.104" y="1.67" class="g">type</text><path fill="#303030" d="M57.114 0h7v2.171h-7z"/><text x="57.114" y="1.67" style="white-space:pre" fill="#add8e6" font-weight="700" text-decoration="underline">C-h C-a</text><text x="64.128" y="1.67" class="g">.</text></symbol><symbol id="4"><path class="j" d="M0 0h254v2.171H0z"/><text y="1.67" class="k">File Edit Options Buffers Tools Python YASnippet Help</text></symbol><symbol id="5"><path class="l" d="M0 0h4v2.171H0z"/><text y="1.67" class="m">from</text><path class="l" d="M4.008 0h13v2.171h-13z"/><text x="4.008" y="1.67" class="f">dataclasses</text><path class="l" d="M17.034 0h6v2.171h-6z"/><text x="17.034" y="1.67" class="m">import</text><path class="l" d="M23.046 0h231v2.171h-231z"/><text x="23.046" y="1.67" class="f">replace</text></symbol><symbol id="6"><text y="1.67" class="n">#</text><text x="2.004" y="1.67" class="n">sample</text><text x="9.018" y="1.67" class="n">comment</text></symbol><symbol id="7"><text y="1.67" class="m">from</text><text x="5.01" y="1.67" class="f">collections.abc</text><text x="21.042" y="1.67" class="m">import</text><text x="28.056" y="1.67" class="f">(</text></symbol><symbol id="8"><text x="4.008" y="1.67" class="f">Collection,</text></symbol><symbol id="9"><text x="4.008" y="1.67" class="f">Generator</text></symbol><symbol id="10"><text y="1.67" class="f">)</text></symbol><symbol id="11"><text y="1.67" class="m">class</text><text x="6.012" y="1.67" class="o">MyClass</text><text x="13.026" y="1.67" class="f">:</text></symbol><symbol id="12"><text x="4.008" y="1.67" class="m">pass</text></symbol><symbol id="13"><path class="c" d="M0 0h14v2.171H0z"/><text y="1.67" class="d">-UU-:--- F1</text><path class="c" d="M14.028 0h12v2.171h-12z"/><text x="14.028" y="1.67" class="e">sample.py</text><path class="c" d="M26.052 0h228v2.171h-228z"/><text x="26.052" y="1.67" class="d">All L1 &lt;N&gt; (Python company HideImports super-save FlyC* yas Treesit-Fold unimpaired WK , GCMH Apheleia ElDoc) ------------------------------------------------------------------------------------------------------------</text></symbol><symbol id="14"><path class="c" d="M0 0h14v2.171H0z"/><text y="1.67" class="d">-UU-:--- F1</text><path class="c" d="M14.028 0h12v2.171h-12z"/><text x="14.028" y="1.67" class="e">sample.py</text><path class="c" d="M26.052 0h59v2.171h-59z"/><text x="26.052" y="1.67" class="d">All L1 &lt;N&gt; (Python company HideImports super-save</text><path class="c" d="M85.17 0h7v2.171h-7z"/><text x="85.17" y="1.67" class="p">FlyC:0</text><path class="c" d="M92.184 0h162v2.171h-162z"/><text x="92.184" y="1.67" class="d">yas Treesit-Fold unimpaired WK , GCMH Apheleia ElDoc) -----------------------------------------------------------------------------------------------------------</text></symbol><symbol id="15"><text y="1.67" class="m">from</text><text x="5.01" y="1.67" class="f">dataclasses</text><text x="17.034" y="1.67" class="m">import</text><text x="24.048" y="1.67" class="f">replace</text></symbol><symbol id="16"><path class="l" d="M0 0h16v2.171H0z"/><text y="1.67" class="n"># sample comment</text><path class="l" d="M16.032 0h238v2.171h-238z"/><text x="16.032" y="1.67" class="f"></text></symbol><symbol id="17"><path class="c" d="M0 0h14v2.171H0z"/><text y="1.67" class="d">-UU-:--- F1</text><path class="c" d="M14.028 0h12v2.171h-12z"/><text x="14.028" y="1.67" class="e">sample.py</text><path class="c" d="M26.052 0h59v2.171h-59z"/><text x="26.052" y="1.67" class="d">All L2 &lt;N&gt; (Python company HideImports super-save</text><path class="c" d="M85.17 0h7v2.171h-7z"/><text x="85.17" y="1.67" class="p">FlyC:0</text><path class="c" d="M92.184 0h162v2.171h-162z"/><text x="92.184" y="1.67" class="d">yas Treesit-Fold unimpaired WK , GCMH Apheleia ElDoc) -----------------------------------------------------------------------------------------------------------</text></symbol><symbol id="18"><path class="l" d="M0 0h4v2.171H0z"/><text y="1.67" class="m">from</text><path class="l" d="M4.008 0h17v2.171h-17z"/><text x="4.008" y="1.67" class="f">collections.abc</text><path class="l" d="M21.042 0h6v2.171h-6z"/><text x="21.042" y="1.67" class="m">import</text><path class="l" d="M27.054 0h227v2.171h-227z"/><text x="27.054" y="1.67" class="f">(</text></symbol><symbol id="19"><path class="c" d="M0 0h14v2.171H0z"/><text y="1.67" class="d">-UU-:--- F1</text><path class="c" d="M14.028 0h12v2.171h-12z"/><text x="14.028" y="1.67" class="e">sample.py</text><path class="c" d="M26.052 0h59v2.171h-59z"/><text x="26.052" y="1.67" class="d">All L3 &lt;N&gt; (Python company HideImports super-save</text><path class="c" d="M85.17 0h7v2.171h-7z"/><text x="85.17" y="1.67" class="p">FlyC:0</text><path class="c" d="M92.184 0h162v2.171h-162z"/><text x="92.184" y="1.67" class="d">yas Treesit-Fold unimpaired WK , GCMH Apheleia ElDoc) -----------------------------------------------------------------------------------------------------------</text></symbol><symbol id="20"><path class="l" d="M0 0h254v2.171H0z"/><text y="1.67" class="f">Collection,</text></symbol><symbol id="21"><path class="c" d="M0 0h14v2.171H0z"/><text y="1.67" class="d">-UU-:--- F1</text><path class="c" d="M14.028 0h12v2.171h-12z"/><text x="14.028" y="1.67" class="e">sample.py</text><path class="c" d="M26.052 0h59v2.171h-59z"/><text x="26.052" y="1.67" class="d">All L4 &lt;N&gt; (Python company HideImports super-save</text><path class="c" d="M85.17 0h7v2.171h-7z"/><text x="85.17" y="1.67" class="p">FlyC:0</text><path class="c" d="M92.184 0h162v2.171h-162z"/><text x="92.184" y="1.67" class="d">yas Treesit-Fold unimpaired WK , GCMH Apheleia ElDoc) -----------------------------------------------------------------------------------------------------------</text></symbol><symbol id="22"><path class="l" d="M0 0h254v2.171H0z"/><text y="1.67" class="f">Generator</text></symbol><symbol id="23"><path class="c" d="M0 0h14v2.171H0z"/><text y="1.67" class="d">-UU-:--- F1</text><path class="c" d="M14.028 0h12v2.171h-12z"/><text x="14.028" y="1.67" class="e">sample.py</text><path class="c" d="M26.052 0h59v2.171h-59z"/><text x="26.052" y="1.67" class="d">All L5 &lt;N&gt; (Python company HideImports super-save</text><path class="c" d="M85.17 0h7v2.171h-7z"/><text x="85.17" y="1.67" class="p">FlyC:0</text><path class="c" d="M92.184 0h162v2.171h-162z"/><text x="92.184" y="1.67" class="d">yas Treesit-Fold unimpaired WK , GCMH Apheleia ElDoc) -----------------------------------------------------------------------------------------------------------</text></symbol><symbol id="24"><path class="l" d="M0 0h254v2.171H0z"/><text y="1.67" class="f">)</text></symbol><symbol id="25"><path class="c" d="M0 0h14v2.171H0z"/><text y="1.67" class="d">-UU-:--- F1</text><path class="c" d="M14.028 0h12v2.171h-12z"/><text x="14.028" y="1.67" class="e">sample.py</text><path class="c" d="M26.052 0h59v2.171h-59z"/><text x="26.052" y="1.67" class="d">All L6 &lt;N&gt; (Python company HideImports super-save</text><path class="c" d="M85.17 0h7v2.171h-7z"/><text x="85.17" y="1.67" class="p">FlyC:0</text><path class="c" d="M92.184 0h162v2.171h-162z"/><text x="92.184" y="1.67" class="d">yas Treesit-Fold unimpaired WK , GCMH Apheleia ElDoc) -----------------------------------------------------------------------------------------------------------</text></symbol><symbol id="26"><text y="1.67" class="m">from</text><text x="5.01" y="1.67" class="f">collections.abc</text><text x="21.042" y="1.67" class="m">import</text><path class="q" d="M28.056 0h1v2.171h-1z"/><text x="28.056" y="1.67" class="f">(</text></symbol><symbol id="27"><path class="q" d="M0 0h1v2.171H0z"/><text y="1.67" class="f">)</text><path class="l" d="M1.002 0h253v2.171h-253z"/><text x="1.002" y="1.67" class="f"></text></symbol><symbol id="28"><text y="1.67" class="f">...</text><text x="3.006" y="1.67" class="n">Imports</text></symbol><symbol id="29"><path class="l" d="M0 0h254v2.171H0z"/><text y="1.67" class="f"></text></symbol><symbol id="30"><path class="c" d="M0 0h14v2.171H0z"/><text y="1.67" class="d">-UU-:--- F1</text><path class="c" d="M14.028 0h12v2.171h-12z"/><text x="14.028" y="1.67" class="e">sample.py</text><path class="c" d="M26.052 0h59v2.171h-59z"/><text x="26.052" y="1.67" class="d">All L7 &lt;N&gt; (Python company HideImports super-save</text><path class="c" d="M85.17 0h7v2.171h-7z"/><text x="85.17" y="1.67" class="p">FlyC:0</text><path class="c" d="M92.184 0h162v2.171h-162z"/><text x="92.184" y="1.67" class="d">yas Treesit-Fold unimpaired WK , GCMH Apheleia ElDoc) -----------------------------------------------------------------------------------------------------------</text></symbol><symbol id="31"><path class="l" d="M0 0h5v2.171H0z"/><text y="1.67" class="m">class</text><path class="l" d="M5.01 0h1v2.171h-1z"/><text x="5.01" y="1.67" class="f"></text><path class="l" d="M6.012 0h7v2.171h-7z"/><text x="6.012" y="1.67" class="o">MyClass</text><path class="l" d="M13.026 0h241v2.171h-241z"/><text x="13.026" y="1.67" class="f">:</text></symbol><symbol id="32"><path class="c" d="M0 0h14v2.171H0z"/><text y="1.67" class="d">-UU-:--- F1</text><path class="c" d="M14.028 0h12v2.171h-12z"/><text x="14.028" y="1.67" class="e">sample.py</text><path class="c" d="M26.052 0h59v2.171h-59z"/><text x="26.052" y="1.67" class="d">All L8 &lt;N&gt; (Python company HideImports super-save</text><path class="c" d="M85.17 0h7v2.171h-7z"/><text x="85.17" y="1.67" class="p">FlyC:0</text><path class="c" d="M92.184 0h162v2.171h-162z"/><text x="92.184" y="1.67" class="d">yas Treesit-Fold unimpaired WK , GCMH Apheleia ElDoc) -----------------------------------------------------------------------------------------------------------</text></symbol><symbol id="33"><path class="l" d="M0 0h4v2.171H0z"/><text y="1.67" class="f"></text><path class="l" d="M4.008 0h4v2.171h-4z"/><text x="4.008" y="1.67" class="m">pass</text><path class="l" d="M8.016 0h246v2.171h-246z"/><text x="8.016" y="1.67" class="f"></text></symbol><symbol id="34"><path class="c" d="M0 0h14v2.171H0z"/><text y="1.67" class="d">-UU-:--- F1</text><path class="c" d="M14.028 0h12v2.171h-12z"/><text x="14.028" y="1.67" class="e">sample.py</text><path class="c" d="M26.052 0h59v2.171h-59z"/><text x="26.052" y="1.67" class="d">All L9 &lt;N&gt; (Python company HideImports super-save</text><path class="c" d="M85.17 0h7v2.171h-7z"/><text x="85.17" y="1.67" class="p">FlyC:0</text><path class="c" d="M92.184 0h162v2.171h-162z"/><text x="92.184" y="1.67" class="d">yas Treesit-Fold unimpaired WK , GCMH Apheleia ElDoc) -----------------------------------------------------------------------------------------------------------</text></symbol><symbol id="35"><text y="1.67" class="f">Beginning</text><text x="10.02" y="1.67" class="f">of</text><text x="13.026" y="1.67" class="f">buffer</text></symbol><symbol id="36"><path class="c" d="M0 0h14v2.171H0z"/><text y="1.67" class="d">-UU-:--- F1</text><path class="c" d="M14.028 0h12v2.171h-12z"/><text x="14.028" y="1.67" class="e">sample.py</text><path class="c" d="M26.052 0h59v2.171h-59z"/><text x="26.052" y="1.67" class="d">All L10 &lt;N&gt; (Python company HideImports super-save</text><path class="c" d="M85.17 0h7v2.171h-7z"/><text x="85.17" y="1.67" class="p">FlyC:0</text><path class="c" d="M92.184 0h162v2.171h-162z"/><text x="92.184" y="1.67" class="d">yas Treesit-Fold unimpaired WK , GCMH Apheleia ElDoc) -----------------------------------------------------------------------------------------------------------</text></symbol><symbol id="37"><path class="j" d="M0 0h32v2.171H0z"/><text y="1.67" class="k">File Edit Options Buffers Tools</text><path class="j" d="M32.064 0h21v2.171h-21z"/><text x="32.064" y="1.67" class="r">Help</text><path class="j" d="M53.106 0h201v2.171h-201z"/><text x="53.106" y="1.67" class="k"></text></symbol><symbol id="38"><text y="1.67" class="s">:</text></symbol><symbol id="39"><text y="1.67" class="s">:</text><text x="1.002" y="1.67" class="f">q</text></symbol><symbol id="40"><text y="1.67" class="f">Wrote</text><text x="6.012" y="1.67" class="f">/var/home/marco/.config/emacs/var/recentf-save.el</text></symbol><symbol id="41"><path class="j" d="M0 0h32v2.171H0z"/><text y="1.67" class="k">File Edit Options Buffers Tools</text><path class="j" d="M32.064 0h21v2.171h-21z"/><text x="32.064" y="1.67" class="r">Python YASnippet Help</text><path class="j" d="M53.106 0h201v2.171h-201z"/><text x="53.106" y="1.67" class="k"></text></symbol><symbol id="a"><path fill="transparent" d="M0 0h254v59H0z"/></symbol><symbol id="b"><path fill="#6f7683" d="M0 0h1.102v2.171H0z"/></symbol></defs><path class="a" d="M0 0h254v128.089H0z"/><g style="animation-duration:10.636906s;animation-iteration-count:infinite;animation-name:v;animation-timing-function:steps(1,end)"><svg width="24384"><svg><use xlink:href="#a"/><use xlink:href="#b" x="-.004"/></svg><svg x="254"><use xlink:href="#a"/><use xlink:href="#b" x="-.004"/></svg><svg x="508"><use xlink:href="#a"/><use xlink:href="#b" x="-.004"/></svg><svg x="762"><use xlink:href="#a"/><use xlink:href="#b" x="-.004"/></svg><svg x="1016"><use xlink:href="#a"/><use xlink:href="#b" x="-.004" y="2.146"/><use xlink:href="#1" y="123.747"/></svg><svg x="1270"><use xlink:href="#a"/><use xlink:href="#b" x="-.004" y="2.146"/><use xlink:href="#1" y="123.747"/><text y="127.588" class="f">Loading</text><text x="8.016" y="127.588" class="f">/var/home/marco/.config/emacs/recentf...</text></svg><svg x="1524"><use xlink:href="#a"/><use xlink:href="#b" x="-.004" y="2.146"/><use xlink:href="#1" y="123.747"/><text y="127.588" class="f">Loading</text><text x="8.016" y="127.588" class="f">/var/home/marco/.config/emacs/recentf...done</text></svg><svg x="1778"><use xlink:href="#a"/><use xlink:href="#b" x="-.004" y="2.146"/><use xlink:href="#1" y="123.747"/><text y="127.588" class="f">Cleaning</text><text x="9.018" y="127.588" class="f">up</text><text x="12.024" y="127.588" class="f">the</text><text x="16.032" y="127.588" class="f">recentf</text><text x="24.048" y="127.588" class="f">list...</text></svg><svg x="2032"><use xlink:href="#a"/><use xlink:href="#b" x="-.004" y="2.146"/><use xlink:href="#1" y="123.747"/><text y="127.588" class="f">Cleaning</text><text x="9.018" y="127.588" class="f">up</text><text x="12.024" y="127.588" class="f">the</text><text x="16.032" y="127.588" class="f">recentf</text><text x="24.048" y="127.588" class="f">list...done</text><text x="36.072" y="127.588" class="f">(0</text><text x="39.078" y="127.588" class="f">removed)</text></svg><svg x="2286"><use xlink:href="#a"/><use xlink:href="#b" x="-.004" y="2.146"/><use xlink:href="#1" y="123.747"/><text y="127.588" class="f">[yas]</text><text x="6.012" y="127.588" class="f">Prepared</text><text x="15.03" y="127.588" class="f">just-in-time</text><text x="28.056" y="127.588" class="f">loading</text><text x="36.072" y="127.588" class="f">of</text><text x="39.078" y="127.588" class="f">snippets</text><text x="48.096" y="127.588" class="f">successfully.</text></svg><svg x="2540"><use xlink:href="#a"/><use xlink:href="#b" x="-.004" y="2.146"/><use xlink:href="#1" y="123.747"/><text y="127.588" class="f">Turning</text><text x="8.016" y="127.588" class="f">on</text><text x="11.022" y="127.588" class="f">magit-auto-revert-mode...</text></svg><svg x="2794"><use xlink:href="#a"/><use xlink:href="#b" x="-.004" y="2.146"/><use xlink:href="#1" y="123.747"/><use xlink:href="#2" y="125.918"/></svg><svg x="3048"><use xlink:href="#a"/><use xlink:href="#b" x="-.004" y="2.146"/><use xlink:href="#1" y="123.747"/><use xlink:href="#2" y="125.918"/></svg><svg x="3302"><use xlink:href="#a"/><use xlink:href="#b" x="-.004" y="2.146"/><use xlink:href="#1" y="123.747"/><use xlink:href="#2" y="125.918"/></svg><svg x="3556"><use xlink:href="#a"/><use xlink:href="#b" x="-.004" y="2.146"/><use xlink:href="#1" y="123.747"/><use xlink:href="#2" y="125.918"/></svg><svg x="3810"><use xlink:href="#a"/><use xlink:href="#b" x="-.004" y="2.146"/><use xlink:href="#1" y="123.747"/><use xlink:href="#3" y="125.918"/></svg><svg x="4064"><use xlink:href="#a"/><use xlink:href="#4"/><use xlink:href="#5" y="2.171"/><use xlink:href="#6" y="4.342"/><use xlink:href="#7" y="6.513"/><use xlink:href="#8" y="8.684"/><use xlink:href="#9" y="10.855"/><use xlink:href="#10" y="13.026"/><use xlink:href="#11" y="17.368"/><use xlink:href="#12" y="19.539"/><use xlink:href="#1" y="123.747"/><use xlink:href="#3" y="125.918"/></svg><svg x="4318"><use xlink:href="#a"/><use xlink:href="#b" x="-.004" y="2.146"/><use xlink:href="#4"/><use xlink:href="#5" y="2.171"/><use xlink:href="#6" y="4.342"/><use xlink:href="#7" y="6.513"/><use xlink:href="#8" y="8.684"/><use xlink:href="#9" y="10.855"/><use xlink:href="#10" y="13.026"/><use xlink:href="#11" y="17.368"/><use xlink:href="#12" y="19.539"/><use xlink:href="#13" y="123.747"/><use xlink:href="#3" y="125.918"/></svg><svg x="4572"><use xlink:href="#a"/><use xlink:href="#b" x="-.004" y="2.146"/><use xlink:href="#4"/><use xlink:href="#5" y="2.171"/><use xlink:href="#6" y="4.342"/><use xlink:href="#7" y="6.513"/><use xlink:href="#8" y="8.684"/><use xlink:href="#9" y="10.855"/><use xlink:href="#10" y="13.026"/><use xlink:href="#11" y="17.368"/><use xlink:href="#12" y="19.539"/><use xlink:href="#13" y="123.747"/></svg><svg x="4826"><use xlink:href="#a"/><use xlink:href="#b" x="-.004" y="2.146"/><use xlink:href="#4"/><use xlink:href="#5" y="2.171"/><use xlink:href="#6" y="4.342"/><use xlink:href="#7" y="6.513"/><use xlink:href="#8" y="8.684"/><use xlink:href="#9" y="10.855"/><use xlink:href="#10" y="13.026"/><use xlink:href="#11" y="17.368"/><use xlink:href="#12" y="19.539"/><use xlink:href="#14" y="123.747"/></svg><svg x="5080"><use xlink:href="#a"/><use xlink:href="#b" x="-.004" y="4.317"/><use xlink:href="#4"/><use xlink:href="#15" y="2.171"/><use xlink:href="#16" y="4.342"/><use xlink:href="#7" y="6.513"/><use xlink:href="#8" y="8.684"/><use xlink:href="#9" y="10.855"/><use xlink:href="#10" y="13.026"/><use xlink:href="#11" y="17.368"/><use xlink:href="#12" y="19.539"/><use xlink:href="#17" y="123.747"/></svg><svg x="5334"><use xlink:href="#a"/><use xlink:href="#4"/><use xlink:href="#15" y="2.171"/><use xlink:href="#6" y="4.342"/><use xlink:href="#18" y="6.513"/><use xlink:href="#8" y="8.684"/><use xlink:href="#9" y="10.855"/><use xlink:href="#10" y="13.026"/><use xlink:href="#11" y="17.368"/><use xlink:href="#12" y="19.539"/><use xlink:href="#17" y="123.747"/></svg><svg x="5588"><use xlink:href="#a"/><use xlink:href="#b" x="-.004" y="6.488"/><use xlink:href="#4"/><use xlink:href="#15" y="2.171"/><use xlink:href="#6" y="4.342"/><use xlink:href="#18" y="6.513"/><use xlink:href="#8" y="8.684"/><use xlink:href="#9" y="10.855"/><use xlink:href="#10" y="13.026"/><use xlink:href="#11" y="17.368"/><use xlink:href="#12" y="19.539"/><use xlink:href="#19" y="123.747"/></svg><svg x="5842"><use xlink:href="#a"/><use xlink:href="#4"/><use xlink:href="#15" y="2.171"/><use xlink:href="#6" y="4.342"/><use xlink:href="#7" y="6.513"/><use xlink:href="#20" y="8.684"/><use xlink:href="#9" y="10.855"/><use xlink:href="#10" y="13.026"/><use xlink:href="#11" y="17.368"/><use xlink:href="#12" y="19.539"/><use xlink:href="#19" y="123.747"/></svg><svg x="6096"><use xlink:href="#a"/><use xlink:href="#b" x="-.004" y="8.659"/><use xlink:href="#4"/><use xlink:href="#15" y="2.171"/><use xlink:href="#6" y="4.342"/><use xlink:href="#7" y="6.513"/><use xlink:href="#20" y="8.684"/><use xlink:href="#9" y="10.855"/><use xlink:href="#10" y="13.026"/><use xlink:href="#11" y="17.368"/><use xlink:href="#12" y="19.539"/><use xlink:href="#21" y="123.747"/></svg><svg x="6350"><use xlink:href="#a"/><use xlink:href="#4"/><use xlink:href="#15" y="2.171"/><use xlink:href="#6" y="4.342"/><use xlink:href="#7" y="6.513"/><use xlink:href="#8" y="8.684"/><use xlink:href="#22" y="10.855"/><use xlink:href="#10" y="13.026"/><use xlink:href="#11" y="17.368"/><use xlink:href="#12" y="19.539"/><use xlink:href="#21" y="123.747"/></svg><svg x="6604"><use xlink:href="#a"/><use xlink:href="#b" x="-.004" y="10.83"/><use xlink:href="#4"/><use xlink:href="#15" y="2.171"/><use xlink:href="#6" y="4.342"/><use xlink:href="#7" y="6.513"/><use xlink:href="#8" y="8.684"/><use xlink:href="#22" y="10.855"/><use xlink:href="#10" y="13.026"/><use xlink:href="#11" y="17.368"/><use xlink:href="#12" y="19.539"/><use xlink:href="#23" y="123.747"/></svg><svg x="6858"><use xlink:href="#a"/><use xlink:href="#b" x="-.004" y="13.001"/><use xlink:href="#4"/><use xlink:href="#15" y="2.171"/><use xlink:href="#6" y="4.342"/><use xlink:href="#7" y="6.513"/><use xlink:href="#8" y="8.684"/><use xlink:href="#9" y="10.855"/><use xlink:href="#24" y="13.026"/><use xlink:href="#11" y="17.368"/><use xlink:href="#12" y="19.539"/><use xlink:href="#25" y="123.747"/></svg><svg x="7112"><use xlink:href="#a"/><use xlink:href="#b" x="-.004" y="13.001"/><use xlink:href="#4"/><use xlink:href="#15" y="2.171"/><use xlink:href="#6" y="4.342"/><use xlink:href="#26" y="6.513"/><use xlink:href="#8" y="8.684"/><use xlink:href="#9" y="10.855"/><use xlink:href="#27" y="13.026"/><use xlink:href="#11" y="17.368"/><use xlink:href="#12" y="19.539"/><use xlink:href="#25" y="123.747"/></svg><svg x="7366"><use xlink:href="#a"/><use xlink:href="#4"/><use xlink:href="#28" y="2.171"/><use xlink:href="#29" y="4.342"/><use xlink:href="#11" y="6.513"/><use xlink:href="#12" y="8.684"/><use xlink:href="#25" y="123.747"/></svg><svg x="7620"><use xlink:href="#a"/><use xlink:href="#b" x="-.004" y="4.317"/><use xlink:href="#4"/><use xlink:href="#28" y="2.171"/><use xlink:href="#29" y="4.342"/><use xlink:href="#11" y="6.513"/><use xlink:href="#12" y="8.684"/><use xlink:href="#30" y="123.747"/></svg><svg x="7874"><use xlink:href="#a"/><use xlink:href="#b" x="-.004" y="6.488"/><use xlink:href="#4"/><use xlink:href="#28" y="2.171"/><use xlink:href="#31" y="6.513"/><use xlink:href="#12" y="8.684"/><use xlink:href="#32" y="123.747"/></svg><svg x="8128"><use xlink:href="#a"/><use xlink:href="#b" x="-.004" y="8.659"/><use xlink:href="#4"/><use xlink:href="#28" y="2.171"/><use xlink:href="#11" y="6.513"/><use xlink:href="#33" y="8.684"/><use xlink:href="#34" y="123.747"/></svg><svg x="8382"><use xlink:href="#a"/><use xlink:href="#4"/><use xlink:href="#28" y="2.171"/><use xlink:href="#31" y="6.513"/><use xlink:href="#12" y="8.684"/><use xlink:href="#34" y="123.747"/></svg><svg x="8636"><use xlink:href="#a"/><use xlink:href="#b" x="-.004" y="6.488"/><use xlink:href="#4"/><use xlink:href="#28" y="2.171"/><use xlink:href="#31" y="6.513"/><use xlink:href="#12" y="8.684"/><use xlink:href="#32" y="123.747"/></svg><svg x="8890"><use xlink:href="#a"/><use xlink:href="#b" x="-.004" y="4.317"/><use xlink:href="#4"/><use xlink:href="#28" y="2.171"/><use xlink:href="#29" y="4.342"/><use xlink:href="#11" y="6.513"/><use xlink:href="#12" y="8.684"/><use xlink:href="#30" y="123.747"/></svg><svg x="9144"><use xlink:href="#a"/><use xlink:href="#4"/><use xlink:href="#5" y="2.171"/><use xlink:href="#6" y="4.342"/><use xlink:href="#7" y="6.513"/><use xlink:href="#8" y="8.684"/><use xlink:href="#9" y="10.855"/><use xlink:href="#10" y="13.026"/><use xlink:href="#11" y="17.368"/><use xlink:href="#12" y="19.539"/><use xlink:href="#30" y="123.747"/></svg><svg x="9398"><use xlink:href="#a"/><use xlink:href="#b" x="-.004" y="2.146"/><use xlink:href="#4"/><use xlink:href="#5" y="2.171"/><use xlink:href="#6" y="4.342"/><use xlink:href="#7" y="6.513"/><use xlink:href="#8" y="8.684"/><use xlink:href="#9" y="10.855"/><use xlink:href="#10" y="13.026"/><use xlink:href="#11" y="17.368"/><use xlink:href="#12" y="19.539"/><use xlink:href="#14" y="123.747"/></svg><svg x="9652"><use xlink:href="#a"/><use xlink:href="#b" x="-.004" y="2.146"/><use xlink:href="#4"/><use xlink:href="#5" y="2.171"/><use xlink:href="#6" y="4.342"/><use xlink:href="#7" y="6.513"/><use xlink:href="#8" y="8.684"/><use xlink:href="#9" y="10.855"/><use xlink:href="#10" y="13.026"/><use xlink:href="#11" y="17.368"/><use xlink:href="#12" y="19.539"/><use xlink:href="#14" y="123.747"/></svg><svg x="9906"><use xlink:href="#a"/><use xlink:href="#4"/><use xlink:href="#5" y="2.171"/><use xlink:href="#6" y="4.342"/><use xlink:href="#7" y="6.513"/><use xlink:href="#8" y="8.684"/><use xlink:href="#9" y="10.855"/><use xlink:href="#10" y="13.026"/><use xlink:href="#11" y="17.368"/><use xlink:href="#12" y="19.539"/><use xlink:href="#14" y="123.747"/><use xlink:href="#35" y="125.918"/></svg><svg x="10160"><use xlink:href="#a"/><use xlink:href="#b" x="-.004" y="2.146"/><use xlink:href="#4"/><use xlink:href="#5" y="2.171"/><use xlink:href="#6" y="4.342"/><use xlink:href="#7" y="6.513"/><use xlink:href="#8" y="8.684"/><use xlink:href="#9" y="10.855"/><use xlink:href="#10" y="13.026"/><use xlink:href="#11" y="17.368"/><use xlink:href="#12" y="19.539"/><use xlink:href="#14" y="123.747"/><use xlink:href="#35" y="125.918"/></svg><svg x="10414"><use xlink:href="#a"/><use xlink:href="#b" x="-.004" y="2.146"/><use xlink:href="#4"/><use xlink:href="#5" y="2.171"/><use xlink:href="#6" y="4.342"/><use xlink:href="#7" y="6.513"/><use xlink:href="#8" y="8.684"/><use xlink:href="#9" y="10.855"/><use xlink:href="#10" y="13.026"/><use xlink:href="#11" y="17.368"/><use xlink:href="#12" y="19.539"/><use xlink:href="#14" y="123.747"/><use xlink:href="#35" y="125.918"/></svg><svg x="10668"><use xlink:href="#a"/><use xlink:href="#b" x="-.004" y="4.317"/><use xlink:href="#4"/><use xlink:href="#15" y="2.171"/><use xlink:href="#16" y="4.342"/><use xlink:href="#7" y="6.513"/><use xlink:href="#8" y="8.684"/><use xlink:href="#9" y="10.855"/><use xlink:href="#10" y="13.026"/><use xlink:href="#11" y="17.368"/><use xlink:href="#12" y="19.539"/><use xlink:href="#17" y="123.747"/></svg><svg x="10922"><use xlink:href="#a"/><use xlink:href="#4"/><use xlink:href="#15" y="2.171"/><use xlink:href="#6" y="4.342"/><use xlink:href="#18" y="6.513"/><use xlink:href="#8" y="8.684"/><use xlink:href="#9" y="10.855"/><use xlink:href="#10" y="13.026"/><use xlink:href="#11" y="17.368"/><use xlink:href="#12" y="19.539"/><use xlink:href="#17" y="123.747"/></svg><svg x="11176"><use xlink:href="#a"/><use xlink:href="#b" x="-.004" y="6.488"/><use xlink:href="#4"/><use xlink:href="#15" y="2.171"/><use xlink:href="#6" y="4.342"/><use xlink:href="#18" y="6.513"/><use xlink:href="#8" y="8.684"/><use xlink:href="#9" y="10.855"/><use xlink:href="#10" y="13.026"/><use xlink:href="#11" y="17.368"/><use xlink:href="#12" y="19.539"/><use xlink:href="#19" y="123.747"/></svg><svg x="11430"><use xlink:href="#a"/><use xlink:href="#4"/><use xlink:href="#15" y="2.171"/><use xlink:href="#6" y="4.342"/><use xlink:href="#7" y="6.513"/><use xlink:href="#20" y="8.684"/><use xlink:href="#9" y="10.855"/><use xlink:href="#10" y="13.026"/><use xlink:href="#11" y="17.368"/><use xlink:href="#12" y="19.539"/><use xlink:href="#19" y="123.747"/></svg><svg x="11684"><use xlink:href="#a"/><use xlink:href="#b" x="-.004" y="8.659"/><use xlink:href="#4"/><use xlink:href="#15" y="2.171"/><use xlink:href="#6" y="4.342"/><use xlink:href="#7" y="6.513"/><use xlink:href="#20" y="8.684"/><use xlink:href="#9" y="10.855"/><use xlink:href="#10" y="13.026"/><use xlink:href="#11" y="17.368"/><use xlink:href="#12" y="19.539"/><use xlink:href="#21" y="123.747"/></svg><svg x="11938"><use xlink:href="#a"/><use xlink:href="#4"/><use xlink:href="#15" y="2.171"/><use xlink:href="#6" y="4.342"/><use xlink:href="#7" y="6.513"/><use xlink:href="#8" y="8.684"/><use xlink:href="#22" y="10.855"/><use xlink:href="#10" y="13.026"/><use xlink:href="#11" y="17.368"/><use xlink:href="#12" y="19.539"/><use xlink:href="#21" y="123.747"/></svg><svg x="12192"><use xlink:href="#a"/><use xlink:href="#b" x="-.004" y="10.83"/><use xlink:href="#4"/><use xlink:href="#15" y="2.171"/><use xlink:href="#6" y="4.342"/><use xlink:href="#7" y="6.513"/><use xlink:href="#8" y="8.684"/><use xlink:href="#22" y="10.855"/><use xlink:href="#10" y="13.026"/><use xlink:href="#11" y="17.368"/><use xlink:href="#12" y="19.539"/><use xlink:href="#23" y="123.747"/></svg><svg x="12446"><use xlink:href="#a"/><use xlink:href="#b" x="-.004" y="13.001"/><use xlink:href="#4"/><use xlink:href="#15" y="2.171"/><use xlink:href="#6" y="4.342"/><use xlink:href="#7" y="6.513"/><use xlink:href="#8" y="8.684"/><use xlink:href="#9" y="10.855"/><use xlink:href="#24" y="13.026"/><use xlink:href="#11" y="17.368"/><use xlink:href="#12" y="19.539"/><use xlink:href="#25" y="123.747"/></svg><svg x="12700"><use xlink:href="#a"/><use xlink:href="#b" x="-.004" y="13.001"/><use xlink:href="#4"/><use xlink:href="#15" y="2.171"/><use xlink:href="#6" y="4.342"/><use xlink:href="#26" y="6.513"/><use xlink:href="#8" y="8.684"/><use xlink:href="#9" y="10.855"/><use xlink:href="#27" y="13.026"/><use xlink:href="#11" y="17.368"/><use xlink:href="#12" y="19.539"/><use xlink:href="#25" y="123.747"/></svg><svg x="12954"><use xlink:href="#a"/><use xlink:href="#4"/><use xlink:href="#28" y="2.171"/><use xlink:href="#29" y="4.342"/><use xlink:href="#11" y="6.513"/><use xlink:href="#12" y="8.684"/><use xlink:href="#25" y="123.747"/></svg><svg x="13208"><use xlink:href="#a"/><use xlink:href="#b" x="-.004" y="4.317"/><use xlink:href="#4"/><use xlink:href="#28" y="2.171"/><use xlink:href="#29" y="4.342"/><use xlink:href="#11" y="6.513"/><use xlink:href="#12" y="8.684"/><use xlink:href="#30" y="123.747"/></svg><svg x="13462"><use xlink:href="#a"/><use xlink:href="#b" x="-.004" y="6.488"/><use xlink:href="#4"/><use xlink:href="#28" y="2.171"/><use xlink:href="#31" y="6.513"/><use xlink:href="#12" y="8.684"/><use xlink:href="#32" y="123.747"/></svg><svg x="13716"><use xlink:href="#a"/><use xlink:href="#b" x="-.004" y="4.317"/><use xlink:href="#4"/><use xlink:href="#28" y="2.171"/><use xlink:href="#29" y="4.342"/><use xlink:href="#11" y="6.513"/><use xlink:href="#12" y="8.684"/><use xlink:href="#30" y="123.747"/></svg><svg x="13970"><use xlink:href="#a"/><use xlink:href="#b" x="-.004" y="2.146"/><use xlink:href="#4"/><use xlink:href="#5" y="2.171"/><use xlink:href="#6" y="4.342"/><use xlink:href="#7" y="6.513"/><use xlink:href="#8" y="8.684"/><use xlink:href="#9" y="10.855"/><use xlink:href="#10" y="13.026"/><use xlink:href="#11" y="17.368"/><use xlink:href="#12" y="19.539"/><use xlink:href="#14" y="123.747"/></svg><svg x="14224"><use xlink:href="#a"/><use xlink:href="#b" x="-.004" y="2.146"/><use xlink:href="#4"/><use xlink:href="#5" y="2.171"/><use xlink:href="#6" y="4.342"/><use xlink:href="#7" y="6.513"/><use xlink:href="#8" y="8.684"/><use xlink:href="#9" y="10.855"/><use xlink:href="#10" y="13.026"/><use xlink:href="#11" y="17.368"/><use xlink:href="#12" y="19.539"/><use xlink:href="#14" y="123.747"/></svg><svg x="14478"><use xlink:href="#a"/><use xlink:href="#4"/><use xlink:href="#5" y="2.171"/><use xlink:href="#6" y="4.342"/><use xlink:href="#7" y="6.513"/><use xlink:href="#8" y="8.684"/><use xlink:href="#9" y="10.855"/><use xlink:href="#10" y="13.026"/><use xlink:href="#11" y="17.368"/><use xlink:href="#12" y="19.539"/><use xlink:href="#14" y="123.747"/><use xlink:href="#35" y="125.918"/></svg><svg x="14732"><use xlink:href="#a"/><use xlink:href="#b" x="-.004" y="2.146"/><use xlink:href="#4"/><use xlink:href="#5" y="2.171"/><use xlink:href="#6" y="4.342"/><use xlink:href="#7" y="6.513"/><use xlink:href="#8" y="8.684"/><use xlink:href="#9" y="10.855"/><use xlink:href="#10" y="13.026"/><use xlink:href="#11" y="17.368"/><use xlink:href="#12" y="19.539"/><use xlink:href="#14" y="123.747"/><use xlink:href="#35" y="125.918"/></svg><svg x="14986"><use xlink:href="#a"/><use xlink:href="#b" x="-.004" y="2.146"/><use xlink:href="#4"/><use xlink:href="#5" y="2.171"/><use xlink:href="#6" y="4.342"/><use xlink:href="#7" y="6.513"/><use xlink:href="#8" y="8.684"/><use xlink:href="#9" y="10.855"/><use xlink:href="#10" y="13.026"/><use xlink:href="#11" y="17.368"/><use xlink:href="#12" y="19.539"/><use xlink:href="#14" y="123.747"/><use xlink:href="#35" y="125.918"/></svg><svg x="15240"><use xlink:href="#a"/><use xlink:href="#4"/><use xlink:href="#15" y="2.171"/><use xlink:href="#16" y="4.342"/><use xlink:href="#7" y="6.513"/><use xlink:href="#8" y="8.684"/><use xlink:href="#9" y="10.855"/><use xlink:href="#10" y="13.026"/><use xlink:href="#11" y="17.368"/><use xlink:href="#12" y="19.539"/><use xlink:href="#14" y="123.747"/></svg><svg x="15494"><use xlink:href="#a"/><use xlink:href="#b" x="-.004" y="4.317"/><use xlink:href="#4"/><use xlink:href="#15" y="2.171"/><use xlink:href="#16" y="4.342"/><use xlink:href="#7" y="6.513"/><use xlink:href="#8" y="8.684"/><use xlink:href="#9" y="10.855"/><use xlink:href="#10" y="13.026"/><use xlink:href="#11" y="17.368"/><use xlink:href="#12" y="19.539"/><use xlink:href="#17" y="123.747"/></svg><svg x="15748"><use xlink:href="#a"/><use xlink:href="#b" x="-.004" y="6.488"/><use xlink:href="#4"/><use xlink:href="#15" y="2.171"/><use xlink:href="#6" y="4.342"/><use xlink:href="#18" y="6.513"/><use xlink:href="#8" y="8.684"/><use xlink:href="#9" y="10.855"/><use xlink:href="#10" y="13.026"/><use xlink:href="#11" y="17.368"/><use xlink:href="#12" y="19.539"/><use xlink:href="#19" y="123.747"/></svg><svg x="16002"><use xlink:href="#a"/><use xlink:href="#4"/><use xlink:href="#15" y="2.171"/><use xlink:href="#6" y="4.342"/><use xlink:href="#7" y="6.513"/><use xlink:href="#20" y="8.684"/><use xlink:href="#9" y="10.855"/><use xlink:href="#10" y="13.026"/><use xlink:href="#11" y="17.368"/><use xlink:href="#12" y="19.539"/><use xlink:href="#19" y="123.747"/></svg><svg x="16256"><use xlink:href="#a"/><use xlink:href="#b" x="-.004" y="8.659"/><use xlink:href="#4"/><use xlink:href="#15" y="2.171"/><use xlink:href="#6" y="4.342"/><use xlink:href="#7" y="6.513"/><use xlink:href="#20" y="8.684"/><use xlink:href="#9" y="10.855"/><use xlink:href="#10" y="13.026"/><use xlink:href="#11" y="17.368"/><use xlink:href="#12" y="19.539"/><use xlink:href="#21" y="123.747"/></svg><svg x="16510"><use xlink:href="#a"/><use xlink:href="#4"/><use xlink:href="#15" y="2.171"/><use xlink:href="#6" y="4.342"/><use xlink:href="#7" y="6.513"/><use xlink:href="#8" y="8.684"/><use xlink:href="#22" y="10.855"/><use xlink:href="#10" y="13.026"/><use xlink:href="#11" y="17.368"/><use xlink:href="#12" y="19.539"/><use xlink:href="#21" y="123.747"/></svg><svg x="16764"><use xlink:href="#a"/><use xlink:href="#b" x="-.004" y="10.83"/><use xlink:href="#4"/><use xlink:href="#15" y="2.171"/><use xlink:href="#6" y="4.342"/><use xlink:href="#7" y="6.513"/><use xlink:href="#8" y="8.684"/><use xlink:href="#22" y="10.855"/><use xlink:href="#10" y="13.026"/><use xlink:href="#11" y="17.368"/><use xlink:href="#12" y="19.539"/><use xlink:href="#23" y="123.747"/></svg><svg x="17018"><use xlink:href="#a"/><use xlink:href="#4"/><use xlink:href="#15" y="2.171"/><use xlink:href="#6" y="4.342"/><use xlink:href="#7" y="6.513"/><use xlink:href="#8" y="8.684"/><use xlink:href="#9" y="10.855"/><use xlink:href="#24" y="13.026"/><use xlink:href="#11" y="17.368"/><use xlink:href="#12" y="19.539"/><use xlink:href="#23" y="123.747"/></svg><svg x="17272"><use xlink:href="#a"/><use xlink:href="#b" x="-.004" y="13.001"/><use xlink:href="#4"/><use xlink:href="#15" y="2.171"/><use xlink:href="#6" y="4.342"/><use xlink:href="#7" y="6.513"/><use xlink:href="#8" y="8.684"/><use xlink:href="#9" y="10.855"/><use xlink:href="#24" y="13.026"/><use xlink:href="#11" y="17.368"/><use xlink:href="#12" y="19.539"/><use xlink:href="#25" y="123.747"/></svg><svg x="17526"><use xlink:href="#a"/><use xlink:href="#b" x="-.004" y="13.001"/><use xlink:href="#4"/><use xlink:href="#15" y="2.171"/><use xlink:href="#6" y="4.342"/><use xlink:href="#26" y="6.513"/><use xlink:href="#8" y="8.684"/><use xlink:href="#9" y="10.855"/><use xlink:href="#27" y="13.026"/><use xlink:href="#11" y="17.368"/><use xlink:href="#12" y="19.539"/><use xlink:href="#25" y="123.747"/></svg><svg x="17780"><use xlink:href="#a"/><use xlink:href="#4"/><use xlink:href="#28" y="2.171"/><use xlink:href="#29" y="4.342"/><use xlink:href="#11" y="6.513"/><use xlink:href="#12" y="8.684"/><use xlink:href="#25" y="123.747"/></svg><svg x="18034"><use xlink:href="#a"/><use xlink:href="#b" x="-.004" y="4.317"/><use xlink:href="#4"/><use xlink:href="#28" y="2.171"/><use xlink:href="#29" y="4.342"/><use xlink:href="#11" y="6.513"/><use xlink:href="#12" y="8.684"/><use xlink:href="#30" y="123.747"/></svg><svg x="18288"><use xlink:href="#a"/><use xlink:href="#4"/><use xlink:href="#28" y="2.171"/><use xlink:href="#31" y="6.513"/><use xlink:href="#12" y="8.684"/><use xlink:href="#30" y="123.747"/></svg><svg x="18542"><use xlink:href="#a"/><use xlink:href="#b" x="-.004" y="6.488"/><use xlink:href="#4"/><use xlink:href="#28" y="2.171"/><use xlink:href="#31" y="6.513"/><use xlink:href="#12" y="8.684"/><use xlink:href="#32" y="123.747"/></svg><svg x="18796"><use xlink:href="#a"/><use xlink:href="#4"/><use xlink:href="#28" y="2.171"/><use xlink:href="#11" y="6.513"/><use xlink:href="#33" y="8.684"/><use xlink:href="#32" y="123.747"/></svg><svg x="19050"><use xlink:href="#a"/><use xlink:href="#b" x="-.004" y="8.659"/><use xlink:href="#4"/><use xlink:href="#28" y="2.171"/><use xlink:href="#11" y="6.513"/><use xlink:href="#33" y="8.684"/><use xlink:href="#34" y="123.747"/></svg><svg x="19304"><use xlink:href="#a"/><use xlink:href="#4"/><use xlink:href="#28" y="2.171"/><use xlink:href="#11" y="6.513"/><use xlink:href="#12" y="8.684"/><use xlink:href="#34" y="123.747"/></svg><svg x="19558"><use xlink:href="#a"/><use xlink:href="#b" x="-.004" y="10.83"/><use xlink:href="#4"/><use xlink:href="#28" y="2.171"/><use xlink:href="#11" y="6.513"/><use xlink:href="#12" y="8.684"/><use xlink:href="#36" y="123.747"/></svg><svg x="19812"><use xlink:href="#a"/><use xlink:href="#4"/><use xlink:href="#28" y="2.171"/><use xlink:href="#11" y="6.513"/><use xlink:href="#33" y="8.684"/><use xlink:href="#36" y="123.747"/></svg><svg x="20066"><use xlink:href="#a"/><use xlink:href="#b" x="-.004" y="8.659"/><use xlink:href="#4"/><use xlink:href="#28" y="2.171"/><use xlink:href="#11" y="6.513"/><use xlink:href="#33" y="8.684"/><use xlink:href="#34" y="123.747"/></svg><svg x="20320"><use xlink:href="#a"/><use xlink:href="#b" x="-.004" y="6.488"/><use xlink:href="#4"/><use xlink:href="#28" y="2.171"/><use xlink:href="#31" y="6.513"/><use xlink:href="#12" y="8.684"/><use xlink:href="#32" y="123.747"/></svg><svg x="20574"><use xlink:href="#a"/><use xlink:href="#4"/><use xlink:href="#28" y="2.171"/><use xlink:href="#29" y="4.342"/><use xlink:href="#11" y="6.513"/><use xlink:href="#12" y="8.684"/><use xlink:href="#32" y="123.747"/></svg><svg x="20828"><use xlink:href="#a"/><use xlink:href="#b" x="-.004" y="4.317"/><use xlink:href="#4"/><use xlink:href="#28" y="2.171"/><use xlink:href="#29" y="4.342"/><use xlink:href="#11" y="6.513"/><use xlink:href="#12" y="8.684"/><use xlink:href="#30" y="123.747"/></svg><svg x="21082"><use xlink:href="#a"/><use xlink:href="#4"/><use xlink:href="#5" y="2.171"/><use xlink:href="#6" y="4.342"/><use xlink:href="#7" y="6.513"/><use xlink:href="#8" y="8.684"/><use xlink:href="#9" y="10.855"/><use xlink:href="#10" y="13.026"/><use xlink:href="#11" y="17.368"/><use xlink:href="#12" y="19.539"/><use xlink:href="#30" y="123.747"/></svg><svg x="21336"><use xlink:href="#a"/><use xlink:href="#b" x="-.004" y="2.146"/><use xlink:href="#4"/><use xlink:href="#5" y="2.171"/><use xlink:href="#6" y="4.342"/><use xlink:href="#7" y="6.513"/><use xlink:href="#8" y="8.684"/><use xlink:href="#9" y="10.855"/><use xlink:href="#10" y="13.026"/><use xlink:href="#11" y="17.368"/><use xlink:href="#12" y="19.539"/><use xlink:href="#14" y="123.747"/></svg><svg x="21590"><use xlink:href="#a"/><use xlink:href="#b" x="-.004" y="2.146"/><use xlink:href="#4"/><use xlink:href="#5" y="2.171"/><use xlink:href="#6" y="4.342"/><use xlink:href="#7" y="6.513"/><use xlink:href="#8" y="8.684"/><use xlink:href="#9" y="10.855"/><use xlink:href="#10" y="13.026"/><use xlink:href="#11" y="17.368"/><use xlink:href="#12" y="19.539"/><use xlink:href="#14" y="123.747"/></svg><svg x="21844"><use xlink:href="#a"/><use xlink:href="#4"/><use xlink:href="#5" y="2.171"/><use xlink:href="#6" y="4.342"/><use xlink:href="#7" y="6.513"/><use xlink:href="#8" y="8.684"/><use xlink:href="#9" y="10.855"/><use xlink:href="#10" y="13.026"/><use xlink:href="#11" y="17.368"/><use xlink:href="#12" y="19.539"/><use xlink:href="#14" y="123.747"/><use xlink:href="#35" y="125.918"/></svg><svg x="22098"><use xlink:href="#a"/><use xlink:href="#b" x="-.004" y="2.146"/><use xlink:href="#4"/><use xlink:href="#5" y="2.171"/><use xlink:href="#6" y="4.342"/><use xlink:href="#7" y="6.513"/><use xlink:href="#8" y="8.684"/><use xlink:href="#9" y="10.855"/><use xlink:href="#10" y="13.026"/><use xlink:href="#11" y="17.368"/><use xlink:href="#12" y="19.539"/><use xlink:href="#14" y="123.747"/><use xlink:href="#35" y="125.918"/></svg><svg x="22352"><use xlink:href="#a"/><use xlink:href="#37"/><use xlink:href="#5" y="2.171"/><use xlink:href="#6" y="4.342"/><use xlink:href="#7" y="6.513"/><use xlink:href="#8" y="8.684"/><use xlink:href="#9" y="10.855"/><use xlink:href="#10" y="13.026"/><use xlink:href="#11" y="17.368"/><use xlink:href="#12" y="19.539"/><use xlink:href="#14" y="123.747"/><use xlink:href="#38" y="125.918"/></svg><svg x="22606"><use xlink:href="#a"/><use xlink:href="#b" x=".996" y="125.893"/><use xlink:href="#37"/><use xlink:href="#5" y="2.171"/><use xlink:href="#6" y="4.342"/><use xlink:href="#7" y="6.513"/><use xlink:href="#8" y="8.684"/><use xlink:href="#9" y="10.855"/><use xlink:href="#10" y="13.026"/><use xlink:href="#11" y="17.368"/><use xlink:href="#12" y="19.539"/><use xlink:href="#14" y="123.747"/><use xlink:href="#38" y="125.918"/></svg><svg x="22860"><use xlink:href="#a"/><use xlink:href="#b" x="1.996" y="125.893"/><use xlink:href="#37"/><use xlink:href="#5" y="2.171"/><use xlink:href="#6" y="4.342"/><use xlink:href="#7" y="6.513"/><use xlink:href="#8" y="8.684"/><use xlink:href="#9" y="10.855"/><use xlink:href="#10" y="13.026"/><use xlink:href="#11" y="17.368"/><use xlink:href="#12" y="19.539"/><use xlink:href="#14" y="123.747"/><use xlink:href="#39" y="125.918"/></svg><svg x="23114"><use xlink:href="#a"/><use xlink:href="#b" x="-.004" y="125.893"/><use xlink:href="#37"/><use xlink:href="#5" y="2.171"/><use xlink:href="#6" y="4.342"/><use xlink:href="#7" y="6.513"/><use xlink:href="#8" y="8.684"/><use xlink:href="#9" y="10.855"/><use xlink:href="#10" y="13.026"/><use xlink:href="#11" y="17.368"/><use xlink:href="#12" y="19.539"/><use xlink:href="#14" y="123.747"/><use xlink:href="#39" y="125.918"/></svg><svg x="23368"><use xlink:href="#a"/><use xlink:href="#b" x="-.004" y="2.146"/><use xlink:href="#37"/><use xlink:href="#5" y="2.171"/><use xlink:href="#6" y="4.342"/><use xlink:href="#7" y="6.513"/><use xlink:href="#8" y="8.684"/><use xlink:href="#9" y="10.855"/><use xlink:href="#10" y="13.026"/><use xlink:href="#11" y="17.368"/><use xlink:href="#12" y="19.539"/><use xlink:href="#14" y="123.747"/><use xlink:href="#40" y="125.918"/></svg><svg x="23622"><use xlink:href="#a"/><use xlink:href="#41"/><use xlink:href="#5" y="2.171"/><use xlink:href="#6" y="4.342"/><use xlink:href="#7" y="6.513"/><use xlink:href="#8" y="8.684"/><use xlink:href="#9" y="10.855"/><use xlink:href="#10" y="13.026"/><use xlink:href="#11" y="17.368"/><use xlink:href="#12" y="19.539"/><use xlink:href="#14" y="123.747"/><use xlink:href="#40" y="125.918"/></svg><svg x="23876"><use xlink:href="#a"/><use xlink:href="#b" x="-.004" y="2.146"/><use xlink:href="#41"/><use xlink:href="#5" y="2.171"/><use xlink:href="#6" y="4.342"/><use xlink:href="#7" y="6.513"/><use xlink:href="#8" y="8.684"/><use xlink:href="#9" y="10.855"/><use xlink:href="#10" y="13.026"/><use xlink:href="#11" y="17.368"/><use xlink:href="#12" y="19.539"/><path class="c" d="M0 123.747h14v2.171H0z"/><text y="125.417" class="d">-UU-:--- F1</text><path class="c" d="M14.028 123.747h12v2.171h-12z"/><text x="14.028" y="125.417" class="e">sample.py</text><path class="c" d="M26.052 123.747h228v2.171h-228z"/><text x="26.052" y="125.417" class="d">All L1 &lt;N&gt; (Python company HideImports super-save FlyC yas Treesit-Fold unimpaired WK , GCMH Apheleia ElDoc) -------------------------------------------------------------------------------------------------------------</text><use xlink:href="#40" y="125.918"/></svg><svg x="24130"><use xlink:href="#a"/><use xlink:href="#b" x="-.004"/></svg></svg></g></g></svg></svg>