<svg xmlns="http://www.w3.org/2000/svg" xmlns:xlink="http://www.w3.org/1999/xlink" width="800" height="477.62"><rect width="800" height="477.62" rx="0" ry="0" class="a"/><svg height="477.62" viewBox="0 0 80 47.762" width="800" xmlns="http://www.w3.org/2000/svg" xmlns:xlink="http://www.w3.org/1999/xlink"><style>@keyframes u{0%{transform:translateX(0)}.1%{transform:translateX(-160px)}3.6%{transform:translateX(-320px)}5.8%{transform:translateX(-480px)}9.6%{transform:translateX(-560px)}10.6%{transform:translateX(-640px)}10.7%{transform:translateX(-720px)}10.9%{transform:translateX(-800px)}11.1%{transform:translateX(-960px)}13.4%{transform:translateX(-1120px)}18.3%{transform:translateX(-1200px)}21.4%{transform:translateX(-1280px)}24.7%{transform:translateX(-1360px)}28.3%{transform:translateX(-1440px)}31.3%{transform:translateX(-1520px)}32.8%{transform:translateX(-1600px)}34.2%{transform:translateX(-1680px)}38%{transform:translateX(-1760px)}40.8%{transform:translateX(-1840px)}44%{transform:translateX(-1920px)}46.5%{transform:translateX(-2000px)}49.3%{transform:translateX(-2080px)}53.6%{transform:translateX(-2240px)}56.9%{transform:translateX(-2320px)}59.5%{transform:translateX(-2400px)}62.6%{transform:translateX(-2480px)}65.9%{transform:translateX(-2560px)}68.9%{transform:translateX(-2640px)}70.3%{transform:translateX(-2720px)}71.8%{transform:translateX(-2800px)}74.8%{transform:translateX(-2880px)}77.5%{transform:translateX(-2960px)}80.7%{transform:translateX(-3040px)}83.4%{transform:translateX(-3120px)}85.9%{transform:translateX(-3200px)}89.9%{transform:translateX(-3360px)}97.1%{transform:translateX(-3440px)}99%{transform:translateX(-3520px)}99.9%{transform:translateX(-3600px)}to{transform:translateX(-3840px)}}.a{fill:#282d35}.c{fill:#bfbfbf}.d{white-space:pre}.e{fill:#b9c0cb;font-weight:700}.e,.f,.g{white-space:pre}.f{fill:#b9c0cb}.g{font-weight:700;text-decoration:underline}.g,.j{fill:#b9c0cb}.k{fill:#282d35;font-weight:700;text-decoration:underline;white-space:pre}.l{fill:#556b2f}.m,.n,.o{fill:#0ff;white-space:pre}.n,.o{fill:#ff7f24}.o{fill:#98fb98}.p{fill:#4f94cd}.q,.r{fill:#282d35;white-space:pre}.r{fill:#00cdcd}</style><g font-family="Monaco,Consolas,Menlo,'Bitstream Vera Sans Mono','Powerline Symbols',monospace" font-size="1.67"><defs><symbol id="1"><path class="c" d="M0 0h14v2.171H0z"/><text y="1.67" class="d">-UUU:--- F1</text><path class="c" d="M14.028 0h12v2.171h-12z"/><text x="14.028" y="1.67" class="e">*scratch*</text><path class="c" d="M26.052 0h54v2.171h-54z"/><text x="26.052" y="1.67" class="d">All L1 (Fundamental) ------------------------</text></symbol><symbol id="2"><text y="1.67" class="f">Turning</text><text x="8.016" y="1.67" class="f">on</text><text x="11.022" y="1.67" class="f">magit-auto-revert-mode...done</text></symbol><symbol id="3"><text y="1.67" class="g">For</text><text x="4.008" y="1.67" class="g">information</text><text x="16.032" y="1.67" class="g">about</text><text x="22.044" y="1.67" class="g">GNU</text><text x="26.052" y="1.67" class="g">Emacs</text><text x="32.064" y="1.67" class="g">and</text><text x="36.072" y="1.67" class="g">the</text><text x="40.08" y="1.67" class="g">GNU</text><text x="44.088" y="1.67" class="g">system,</text><text x="52.104" y="1.67" class="g">type</text><path fill="#303030" d="M57.114 0h7v2.171h-7z"/><text x="57.114" y="1.67" style="white-space:pre" fill="#add8e6" font-weight="700" text-decoration="underline">C-h C-a</text><text x="64.128" y="1.67" class="g">.</text></symbol><symbol id="4"><path class="j" d="M0 0h80v2.171H0z"/><text y="1.67" class="k">File Edit Options Buffers Tools Python YASnippet Help</text></symbol><symbol id="5"><path class="l" d="M0 0h4v2.171H0z"/><text y="1.67" class="m">from</text><path class="l" d="M4.008 0h13v2.171h-13z"/><text x="4.008" y="1.67" class="f">dataclasses</text><path class="l" d="M17.034 0h6v2.171h-6z"/><text x="17.034" y="1.67" class="m">import</text><path class="l" d="M23.046 0h57v2.171h-57z"/><text x="23.046" y="1.67" class="f">replace</text></symbol><symbol id="6"><text y="1.67" class="n">#</text><text x="2.004" y="1.67" class="n">sample</text><text x="9.018" y="1.67" class="n">comment</text></symbol><symbol id="7"><text y="1.67" class="m">from</text><text x="5.01" y="1.67" class="f">collections.abc</text><text x="21.042" y="1.67" class="m">import</text><text x="28.056" y="1.67" class="f">(</text></symbol><symbol id="8"><text x="4.008" y="1.67" class="f">Collection,</text></symbol><symbol id="9"><text x="4.008" y="1.67" class="f">Generator</text></symbol><symbol id="10"><text y="1.67" class="f">)</text></symbol><symbol id="11"><text y="1.67" class="m">class</text><text x="6.012" y="1.67" class="o">MyClass</text><text x="13.026" y="1.67" class="f">:</text></symbol><symbol id="12"><text x="4.008" y="1.67" class="m">pass</text></symbol><symbol id="13"><path class="c" d="M0 0h14v2.171H0z"/><text y="1.67" class="d">-UU-:--- F1</text><path class="c" d="M14.028 0h12v2.171h-12z"/><text x="14.028" y="1.67" class="e">sample.py</text><path class="c" d="M26.052 0h54v2.171h-54z"/><text x="26.052" y="1.67" class="d">All L1 &lt;N&gt; (Python company HideImports super</text></symbol><symbol id="14"><text y="1.67" class="m">from</text><text x="5.01" y="1.67" class="f">dataclasses</text><text x="17.034" y="1.67" class="m">import</text><text x="24.048" y="1.67" class="f">replace</text></symbol><symbol id="15"><path class="l" d="M0 0h16v2.171H0z"/><text y="1.67" class="n"># sample comment</text><path class="l" d="M16.032 0h64v2.171h-64z"/><text x="16.032" y="1.67" class="f"></text></symbol><symbol id="16"><path class="c" d="M0 0h14v2.171H0z"/><text y="1.67" class="d">-UU-:--- F1</text><path class="c" d="M14.028 0h12v2.171h-12z"/><text x="14.028" y="1.67" class="e">sample.py</text><path class="c" d="M26.052 0h54v2.171h-54z"/><text x="26.052" y="1.67" class="d">All L2 &lt;N&gt; (Python company HideImports super</text></symbol><symbol id="17"><path class="l" d="M0 0h4v2.171H0z"/><text y="1.67" class="m">from</text><path class="l" d="M4.008 0h17v2.171h-17z"/><text x="4.008" y="1.67" class="f">collections.abc</text><path class="l" d="M21.042 0h6v2.171h-6z"/><text x="21.042" y="1.67" class="m">import</text><path class="l" d="M27.054 0h53v2.171h-53z"/><text x="27.054" y="1.67" class="f">(</text></symbol><symbol id="18"><path class="c" d="M0 0h14v2.171H0z"/><text y="1.67" class="d">-UU-:--- F1</text><path class="c" d="M14.028 0h12v2.171h-12z"/><text x="14.028" y="1.67" class="e">sample.py</text><path class="c" d="M26.052 0h54v2.171h-54z"/><text x="26.052" y="1.67" class="d">All L3 &lt;N&gt; (Python company HideImports super</text></symbol><symbol id="19"><path class="l" d="M0 0h80v2.171H0z"/><text y="1.67" class="f">Collection,</text></symbol><symbol id="20"><path class="c" d="M0 0h14v2.171H0z"/><text y="1.67" class="d">-UU-:--- F1</text><path class="c" d="M14.028 0h12v2.171h-12z"/><text x="14.028" y="1.67" class="e">sample.py</text><path class="c" d="M26.052 0h54v2.171h-54z"/><text x="26.052" y="1.67" class="d">All L4 &lt;N&gt; (Python company HideImports super</text></symbol><symbol id="21"><path class="l" d="M0 0h80v2.171H0z"/><text y="1.67" class="f">Generator</text></symbol><symbol id="22"><path class="c" d="M0 0h14v2.171H0z"/><text y="1.67" class="d">-UU-:--- F1</text><path class="c" d="M14.028 0h12v2.171h-12z"/><text x="14.028" y="1.67" class="e">sample.py</text><path class="c" d="M26.052 0h54v2.171h-54z"/><text x="26.052" y="1.67" class="d">All L5 &lt;N&gt; (Python company HideImports super</text></symbol><symbol id="23"><path class="l" d="M0 0h80v2.171H0z"/><text y="1.67" class="f">)</text></symbol><symbol id="24"><path class="c" d="M0 0h14v2.171H0z"/><text y="1.67" class="d">-UU-:--- F1</text><path class="c" d="M14.028 0h12v2.171h-12z"/><text x="14.028" y="1.67" class="e">sample.py</text><path class="c" d="M26.052 0h54v2.171h-54z"/><text x="26.052" y="1.67" class="d">All L6 &lt;N&gt; (Python company HideImports super</text></symbol><symbol id="25"><text y="1.67" class="m">from</text><text x="5.01" y="1.67" class="f">collections.abc</text><text x="21.042" y="1.67" class="m">import</text><path class="p" d="M28.056 0h1v2.171h-1z"/><text x="28.056" y="1.67" class="f">(</text></symbol><symbol id="26"><path class="p" d="M0 0h1v2.171H0z"/><text y="1.67" class="f">)</text><path class="l" d="M1.002 0h79v2.171h-79z"/><text x="1.002" y="1.67" class="f"></text></symbol><symbol id="27"><text y="1.67" class="f">...</text><text x="3.006" y="1.67" class="n">Imports</text></symbol><symbol id="28"><path class="l" d="M0 0h80v2.171H0z"/><text y="1.67" class="f"></text></symbol><symbol id="29"><path class="c" d="M0 0h14v2.171H0z"/><text y="1.67" class="d">-UU-:--- F1</text><path class="c" d="M14.028 0h12v2.171h-12z"/><text x="14.028" y="1.67" class="e">sample.py</text><path class="c" d="M26.052 0h54v2.171h-54z"/><text x="26.052" y="1.67" class="d">All L7 &lt;N&gt; (Python company HideImports super</text></symbol><symbol id="30"><path class="l" d="M0 0h5v2.171H0z"/><text y="1.67" class="m">class</text><path class="l" d="M5.01 0h1v2.171h-1z"/><text x="5.01" y="1.67" class="f"></text><path class="l" d="M6.012 0h7v2.171h-7z"/><text x="6.012" y="1.67" class="o">MyClass</text><path class="l" d="M13.026 0h67v2.171h-67z"/><text x="13.026" y="1.67" class="f">:</text></symbol><symbol id="31"><path class="c" d="M0 0h14v2.171H0z"/><text y="1.67" class="d">-UU-:--- F1</text><path class="c" d="M14.028 0h12v2.171h-12z"/><text x="14.028" y="1.67" class="e">sample.py</text><path class="c" d="M26.052 0h54v2.171h-54z"/><text x="26.052" y="1.67" class="d">All L8 &lt;N&gt; (Python company HideImports super</text></symbol><symbol id="32"><path class="l" d="M0 0h4v2.171H0z"/><text y="1.67" class="f"></text><path class="l" d="M4.008 0h4v2.171h-4z"/><text x="4.008" y="1.67" class="m">pass</text><path class="l" d="M8.016 0h72v2.171h-72z"/><text x="8.016" y="1.67" class="f"></text></symbol><symbol id="33"><path class="c" d="M0 0h14v2.171H0z"/><text y="1.67" class="d">-UU-:--- F1</text><path class="c" d="M14.028 0h12v2.171h-12z"/><text x="14.028" y="1.67" class="e">sample.py</text><path class="c" d="M26.052 0h54v2.171h-54z"/><text x="26.052" y="1.67" class="d">All L9 &lt;N&gt; (Python company HideImports super</text></symbol><symbol id="34"><text y="1.67" class="f">Beginning</text><text x="10.02" y="1.67" class="f">of</text><text x="13.026" y="1.67" class="f">buffer</text></symbol><symbol id="35"><path class="j" d="M0 0h32v2.171H0z"/><text y="1.67" class="k">File Edit Options Buffers Tools</text><path class="j" d="M32.064 0h21v2.171h-21z"/><text x="32.064" y="1.67" class="q">Help</text><path class="j" d="M53.106 0h27v2.171h-27z"/><text x="53.106" y="1.67" class="k"></text></symbol><symbol id="36"><text y="1.67" class="r">:</text><text x="1.002" y="1.67" class="f">q</text></symbol><symbol id="37"><text y="1.67" class="f">Wrote</text><text x="6.012" y="1.67" class="f">/var/home/marco/.config/emacs/var/recentf-save.el</text></symbol><symbol id="a"><path fill="transparent" d="M0 0h80v22H0z"/></symbol><symbol id="b"><path fill="#6f7683" d="M0 0h1.102v2.171H0z"/></symbol></defs><path class="a" d="M0 0h80v47.762H0z"/><g style="animation-duration:8.917375s;animation-iteration-count:infinite;animation-name:u;animation-timing-function:steps(1,end)"><svg width="3920"><svg><use xlink:href="#a"/><use xlink:href="#b" x="-.004"/></svg><svg x="80"><use xlink:href="#a"/><use xlink:href="#b" x="-.004"/></svg><svg x="160"><use xlink:href="#a"/><use xlink:href="#b" x="-.004"/></svg><svg x="240"><use xlink:href="#a"/><use xlink:href="#b" x="-.004"/></svg><svg x="320"><use xlink:href="#a"/><use xlink:href="#b" x="-.004" y="2.146"/><use xlink:href="#1" y="43.42"/></svg><svg x="400"><use xlink:href="#a"/><use xlink:href="#b" x="-.004" y="2.146"/><use xlink:href="#1" y="43.42"/><text y="47.261" class="f">Loading</text><text x="8.016" y="47.261" class="f">/var/home/marco/.config/emacs/recentf...</text></svg><svg x="480"><use xlink:href="#a"/><use xlink:href="#b" x="-.004" y="2.146"/><use xlink:href="#1" y="43.42"/><text y="47.261" class="f">Cleaning</text><text x="9.018" y="47.261" class="f">up</text><text x="12.024" y="47.261" class="f">the</text><text x="16.032" y="47.261" class="f">recentf</text><text x="24.048" y="47.261" class="f">list...done</text><text x="36.072" y="47.261" class="f">(0</text><text x="39.078" y="47.261" class="f">removed)</text></svg><svg x="560"><use xlink:href="#a"/><use xlink:href="#b" x="-.004" y="2.146"/><use xlink:href="#1" y="43.42"/><text y="47.261" class="f">[yas]</text><text x="6.012" y="47.261" class="f">Prepared</text><text x="15.03" y="47.261" class="f">just-in-time</text><text x="28.056" y="47.261" class="f">loading</text><text x="36.072" y="47.261" class="f">of</text><text x="39.078" y="47.261" class="f">snippets</text><text x="48.096" y="47.261" class="f">successfully.</text></svg><svg x="640"><use xlink:href="#a"/><use xlink:href="#b" x="-.004" y="2.146"/><use xlink:href="#1" y="43.42"/><use xlink:href="#2" y="45.591"/></svg><svg x="720"><use xlink:href="#a"/><use xlink:href="#b" x="-.004" y="2.146"/><use xlink:href="#1" y="43.42"/><use xlink:href="#2" y="45.591"/></svg><svg x="800"><use xlink:href="#a"/><use xlink:href="#b" x="-.004" y="2.146"/><use xlink:href="#1" y="43.42"/><use xlink:href="#2" y="45.591"/></svg><svg x="880"><use xlink:href="#a"/><use xlink:href="#b" x="-.004" y="2.146"/><use xlink:href="#1" y="43.42"/><use xlink:href="#2" y="45.591"/></svg><svg x="960"><use xlink:href="#a"/><use xlink:href="#b" x="-.004" y="2.146"/><use xlink:href="#1" y="43.42"/><use xlink:href="#3" y="45.591"/></svg><svg x="1040"><use xlink:href="#a"/><use xlink:href="#b" x="-.004" y="2.146"/><use xlink:href="#4"/><use xlink:href="#5" y="2.171"/><use xlink:href="#6" y="4.342"/><use xlink:href="#7" y="6.513"/><use xlink:href="#8" y="8.684"/><use xlink:href="#9" y="10.855"/><use xlink:href="#10" y="13.026"/><use xlink:href="#11" y="17.368"/><use xlink:href="#12" y="19.539"/><use xlink:href="#13" y="43.42"/><use xlink:href="#3" y="45.591"/></svg><svg x="1120"><use xlink:href="#a"/><use xlink:href="#b" x="-.004" y="2.146"/><use xlink:href="#4"/><use xlink:href="#5" y="2.171"/><use xlink:href="#6" y="4.342"/><use xlink:href="#7" y="6.513"/><use xlink:href="#8" y="8.684"/><use xlink:href="#9" y="10.855"/><use xlink:href="#10" y="13.026"/><use xlink:href="#11" y="17.368"/><use xlink:href="#12" y="19.539"/><use xlink:href="#13" y="43.42"/></svg><svg x="1200"><use xlink:href="#a"/><use xlink:href="#b" x="-.004" y="4.317"/><use xlink:href="#4"/><use xlink:href="#14" y="2.171"/><use xlink:href="#15" y="4.342"/><use xlink:href="#7" y="6.513"/><use xlink:href="#8" y="8.684"/><use xlink:href="#9" y="10.855"/><use xlink:href="#10" y="13.026"/><use xlink:href="#11" y="17.368"/><use xlink:href="#12" y="19.539"/><use xlink:href="#16" y="43.42"/></svg><svg x="1280"><use xlink:href="#a"/><use xlink:href="#b" x="-.004" y="6.488"/><use xlink:href="#4"/><use xlink:href="#14" y="2.171"/><use xlink:href="#6" y="4.342"/><use xlink:href="#17" y="6.513"/><use xlink:href="#8" y="8.684"/><use xlink:href="#9" y="10.855"/><use xlink:href="#10" y="13.026"/><use xlink:href="#11" y="17.368"/><use xlink:href="#12" y="19.539"/><use xlink:href="#18" y="43.42"/></svg><svg x="1360"><use xlink:href="#a"/><use xlink:href="#b" x="-.004" y="8.659"/><use xlink:href="#4"/><use xlink:href="#14" y="2.171"/><use xlink:href="#6" y="4.342"/><use xlink:href="#7" y="6.513"/><use xlink:href="#19" y="8.684"/><use xlink:href="#9" y="10.855"/><use xlink:href="#10" y="13.026"/><use xlink:href="#11" y="17.368"/><use xlink:href="#12" y="19.539"/><use xlink:href="#20" y="43.42"/></svg><svg x="1440"><use xlink:href="#a"/><use xlink:href="#b" x="-.004" y="10.83"/><use xlink:href="#4"/><use xlink:href="#14" y="2.171"/><use xlink:href="#6" y="4.342"/><use xlink:href="#7" y="6.513"/><use xlink:href="#8" y="8.684"/><use xlink:href="#21" y="10.855"/><use xlink:href="#10" y="13.026"/><use xlink:href="#11" y="17.368"/><use xlink:href="#12" y="19.539"/><use xlink:href="#22" y="43.42"/></svg><svg x="1520"><use xlink:href="#a"/><use xlink:href="#b" x="-.004" y="13.001"/><use xlink:href="#4"/><use xlink:href="#14" y="2.171"/><use xlink:href="#6" y="4.342"/><use xlink:href="#7" y="6.513"/><use xlink:href="#8" y="8.684"/><use xlink:href="#9" y="10.855"/><use xlink:href="#23" y="13.026"/><use xlink:href="#11" y="17.368"/><use xlink:href="#12" y="19.539"/><use xlink:href="#24" y="43.42"/></svg><svg x="1600"><use xlink:href="#a"/><use xlink:href="#b" x="-.004" y="13.001"/><use xlink:href="#4"/><use xlink:href="#14" y="2.171"/><use xlink:href="#6" y="4.342"/><use xlink:href="#25" y="6.513"/><use xlink:href="#8" y="8.684"/><use xlink:href="#9" y="10.855"/><use xlink:href="#26" y="13.026"/><use xlink:href="#11" y="17.368"/><use xlink:href="#12" y="19.539"/><use xlink:href="#24" y="43.42"/></svg><svg x="1680"><use xlink:href="#a"/><use xlink:href="#b" x="-.004" y="4.317"/><use xlink:href="#4"/><use xlink:href="#27" y="2.171"/><use xlink:href="#28" y="4.342"/><use xlink:href="#11" y="6.513"/><use xlink:href="#12" y="8.684"/><use xlink:href="#29" y="43.42"/></svg><svg x="1760"><use xlink:href="#a"/><use xlink:href="#b" x="-.004" y="6.488"/><use xlink:href="#4"/><use xlink:href="#27" y="2.171"/><use xlink:href="#30" y="6.513"/><use xlink:href="#12" y="8.684"/><use xlink:href="#31" y="43.42"/></svg><svg x="1840"><use xlink:href="#a"/><use xlink:href="#b" x="-.004" y="8.659"/><use xlink:href="#4"/><use xlink:href="#27" y="2.171"/><use xlink:href="#11" y="6.513"/><use xlink:href="#32" y="8.684"/><use xlink:href="#33" y="43.42"/></svg><svg x="1920"><use xlink:href="#a"/><use xlink:href="#b" x="-.004" y="6.488"/><use xlink:href="#4"/><use xlink:href="#27" y="2.171"/><use xlink:href="#30" y="6.513"/><use xlink:href="#12" y="8.684"/><use xlink:href="#31" y="43.42"/></svg><svg x="2000"><use xlink:href="#a"/><use xlink:href="#b" x="-.004" y="4.317"/><use xlink:href="#4"/><use xlink:href="#27" y="2.171"/><use xlink:href="#28" y="4.342"/><use xlink:href="#11" y="6.513"/><use xlink:href="#12" y="8.684"/><use xlink:href="#29" y="43.42"/></svg><svg x="2080"><use xlink:href="#a"/><use xlink:href="#b" x="-.004" y="2.146"/><use xlink:href="#4"/><use xlink:href="#5" y="2.171"/><use xlink:href="#6" y="4.342"/><use xlink:href="#7" y="6.513"/><use xlink:href="#8" y="8.684"/><use xlink:href="#9" y="10.855"/><use xlink:href="#10" y="13.026"/><use xlink:href="#11" y="17.368"/><use xlink:href="#12" y="19.539"/><use xlink:href="#13" y="43.42"/></svg><svg x="2160"><use xlink:href="#a"/><use xlink:href="#b" x="-.004" y="2.146"/><use xlink:href="#4"/><use xlink:href="#5" y="2.171"/><use xlink:href="#6" y="4.342"/><use xlink:href="#7" y="6.513"/><use xlink:href="#8" y="8.684"/><use xlink:href="#9" y="10.855"/><use xlink:href="#10" y="13.026"/><use xlink:href="#11" y="17.368"/><use xlink:href="#12" y="19.539"/><use xlink:href="#13" y="43.42"/></svg><svg x="2240"><use xlink:href="#a"/><use xlink:href="#b" x="-.004" y="2.146"/><use xlink:href="#4"/><use xlink:href="#5" y="2.171"/><use xlink:href="#6" y="4.342"/><use xlink:href="#7" y="6.513"/><use xlink:href="#8" y="8.684"/><use xlink:href="#9" y="10.855"/><use xlink:href="#10" y="13.026"/><use xlink:href="#11" y="17.368"/><use xlink:href="#12" y="19.539"/><use xlink:href="#13" y="43.42"/><use xlink:href="#34" y="45.591"/></svg><svg x="2320"><use xlink:href="#a"/><use xlink:href="#b" x="-.004" y="4.317"/><use xlink:href="#4"/><use xlink:href="#14" y="2.171"/><use xlink:href="#15" y="4.342"/><use xlink:href="#7" y="6.513"/><use xlink:href="#8" y="8.684"/><use xlink:href="#9" y="10.855"/><use xlink:href="#10" y="13.026"/><use xlink:href="#11" y="17.368"/><use xlink:href="#12" y="19.539"/><use xlink:href="#16" y="43.42"/></svg><svg x="2400"><use xlink:href="#a"/><use xlink:href="#b" x="-.004" y="6.488"/><use xlink:href="#4"/><use xlink:href="#14" y="2.171"/><use xlink:href="#6" y="4.342"/><use xlink:href="#17" y="6.513"/><use xlink:href="#8" y="8.684"/><use xlink:href="#9" y="10.855"/><use xlink:href="#10" y="13.026"/><use xlink:href="#11" y="17.368"/><use xlink:href="#12" y="19.539"/><use xlink:href="#18" y="43.42"/></svg><svg x="2480"><use xlink:href="#a"/><use xlink:href="#b" x="-.004" y="8.659"/><use xlink:href="#4"/><use xlink:href="#14" y="2.171"/><use xlink:href="#6" y="4.342"/><use xlink:href="#7" y="6.513"/><use xlink:href="#19" y="8.684"/><use xlink:href="#9" y="10.855"/><use xlink:href="#10" y="13.026"/><use xlink:href="#11" y="17.368"/><use xlink:href="#12" y="19.539"/><use xlink:href="#20" y="43.42"/></svg><svg x="2560"><use xlink:href="#a"/><use xlink:href="#b" x="-.004" y="10.83"/><use xlink:href="#4"/><use xlink:href="#14" y="2.171"/><use xlink:href="#6" y="4.342"/><use xlink:href="#7" y="6.513"/><use xlink:href="#8" y="8.684"/><use xlink:href="#21" y="10.855"/><use xlink:href="#10" y="13.026"/><use xlink:href="#11" y="17.368"/><use xlink:href="#12" y="19.539"/><use xlink:href="#22" y="43.42"/></svg><svg x="2640"><use xlink:href="#a"/><use xlink:href="#b" x="-.004" y="13.001"/><use xlink:href="#4"/><use xlink:href="#14" y="2.171"/><use xlink:href="#6" y="4.342"/><use xlink:href="#7" y="6.513"/><use xlink:href="#8" y="8.684"/><use xlink:href="#9" y="10.855"/><use xlink:href="#23" y="13.026"/><use xlink:href="#11" y="17.368"/><use xlink:href="#12" y="19.539"/><use xlink:href="#24" y="43.42"/></svg><svg x="2720"><use xlink:href="#a"/><use xlink:href="#b" x="-.004" y="13.001"/><use xlink:href="#4"/><use xlink:href="#14" y="2.171"/><use xlink:href="#6" y="4.342"/><use xlink:href="#25" y="6.513"/><use xlink:href="#8" y="8.684"/><use xlink:href="#9" y="10.855"/><use xlink:href="#26" y="13.026"/><use xlink:href="#11" y="17.368"/><use xlink:href="#12" y="19.539"/><use xlink:href="#24" y="43.42"/></svg><svg x="2800"><use xlink:href="#a"/><use xlink:href="#b" x="-.004" y="4.317"/><use xlink:href="#4"/><use xlink:href="#27" y="2.171"/><use xlink:href="#28" y="4.342"/><use xlink:href="#11" y="6.513"/><use xlink:href="#12" y="8.684"/><use xlink:href="#29" y="43.42"/></svg><svg x="2880"><use xlink:href="#a"/><use xlink:href="#b" x="-.004" y="6.488"/><use xlink:href="#4"/><use xlink:href="#27" y="2.171"/><use xlink:href="#30" y="6.513"/><use xlink:href="#12" y="8.684"/><use xlink:href="#31" y="43.42"/></svg><svg x="2960"><use xlink:href="#a"/><use xlink:href="#b" x="-.004" y="8.659"/><use xlink:href="#4"/><use xlink:href="#27" y="2.171"/><use xlink:href="#11" y="6.513"/><use xlink:href="#32" y="8.684"/><use xlink:href="#33" y="43.42"/></svg><svg x="3040"><use xlink:href="#a"/><use xlink:href="#b" x="-.004" y="6.488"/><use xlink:href="#4"/><use xlink:href="#27" y="2.171"/><use xlink:href="#30" y="6.513"/><use xlink:href="#12" y="8.684"/><use xlink:href="#31" y="43.42"/></svg><svg x="3120"><use xlink:href="#a"/><use xlink:href="#b" x="-.004" y="4.317"/><use xlink:href="#4"/><use xlink:href="#27" y="2.171"/><use xlink:href="#28" y="4.342"/><use xlink:href="#11" y="6.513"/><use xlink:href="#12" y="8.684"/><use xlink:href="#29" y="43.42"/></svg><svg x="3200"><use xlink:href="#a"/><use xlink:href="#b" x="-.004" y="2.146"/><use xlink:href="#4"/><use xlink:href="#5" y="2.171"/><use xlink:href="#6" y="4.342"/><use xlink:href="#7" y="6.513"/><use xlink:href="#8" y="8.684"/><use xlink:href="#9" y="10.855"/><use xlink:href="#10" y="13.026"/><use xlink:href="#11" y="17.368"/><use xlink:href="#12" y="19.539"/><use xlink:href="#13" y="43.42"/></svg><svg x="3280"><use xlink:href="#a"/><use xlink:href="#b" x="-.004" y="2.146"/><use xlink:href="#4"/><use xlink:href="#5" y="2.171"/><use xlink:href="#6" y="4.342"/><use xlink:href="#7" y="6.513"/><use xlink:href="#8" y="8.684"/><use xlink:href="#9" y="10.855"/><use xlink:href="#10" y="13.026"/><use xlink:href="#11" y="17.368"/><use xlink:href="#12" y="19.539"/><use xlink:href="#13" y="43.42"/></svg><svg x="3360"><use xlink:href="#a"/><use xlink:href="#b" x="-.004" y="2.146"/><use xlink:href="#4"/><use xlink:href="#5" y="2.171"/><use xlink:href="#6" y="4.342"/><use xlink:href="#7" y="6.513"/><use xlink:href="#8" y="8.684"/><use xlink:href="#9" y="10.855"/><use xlink:href="#10" y="13.026"/><use xlink:href="#11" y="17.368"/><use xlink:href="#12" y="19.539"/><use xlink:href="#13" y="43.42"/><use xlink:href="#34" y="45.591"/></svg><svg x="3440"><use xlink:href="#a"/><use xlink:href="#b" x=".996" y="45.566"/><use xlink:href="#35"/><use xlink:href="#5" y="2.171"/><use xlink:href="#6" y="4.342"/><use xlink:href="#7" y="6.513"/><use xlink:href="#8" y="8.684"/><use xlink:href="#9" y="10.855"/><use xlink:href="#10" y="13.026"/><use xlink:href="#11" y="17.368"/><use xlink:href="#12" y="19.539"/><use xlink:href="#13" y="43.42"/><text y="47.261" class="r">:</text></svg><svg x="3520"><use xlink:href="#a"/><use xlink:href="#b" x="1.996" y="45.566"/><use xlink:href="#35"/><use xlink:href="#5" y="2.171"/><use xlink:href="#6" y="4.342"/><use xlink:href="#7" y="6.513"/><use xlink:href="#8" y="8.684"/><use xlink:href="#9" y="10.855"/><use xlink:href="#10" y="13.026"/><use xlink:href="#11" y="17.368"/><use xlink:href="#12" y="19.539"/><use xlink:href="#13" y="43.42"/><use xlink:href="#36" y="45.591"/></svg><svg x="3600"><use xlink:href="#a"/><use xlink:href="#b" x="-.004" y="45.566"/><use xlink:href="#35"/><use xlink:href="#5" y="2.171"/><use xlink:href="#6" y="4.342"/><use xlink:href="#7" y="6.513"/><use xlink:href="#8" y="8.684"/><use xlink:href="#9" y="10.855"/><use xlink:href="#10" y="13.026"/><use xlink:href="#11" y="17.368"/><use xlink:href="#12" y="19.539"/><use xlink:href="#13" y="43.42"/><use xlink:href="#36" y="45.591"/></svg><svg x="3680"><use xlink:href="#a"/><use xlink:href="#b" x="-.004" y="2.146"/><use xlink:href="#35"/><use xlink:href="#5" y="2.171"/><use xlink:href="#6" y="4.342"/><use xlink:href="#7" y="6.513"/><use xlink:href="#8" y="8.684"/><use xlink:href="#9" y="10.855"/><use xlink:href="#10" y="13.026"/><use xlink:href="#11" y="17.368"/><use xlink:href="#12" y="19.539"/><use xlink:href="#13" y="43.42"/><use xlink:href="#37" y="45.591"/></svg><svg x="3760"><use xlink:href="#a"/><use xlink:href="#b" x="-.004" y="2.146"/><path class="j" d="M0 0h32v2.171H0z"/><text y="1.67" class="k">File Edit Options Buffers Tools</text><path class="j" d="M32.064 0h21v2.171h-21z"/><text x="32.064" y="1.67" class="q">Python YASnippet Help</text><path class="j" d="M53.106 0h27v2.171h-27z"/><text x="53.106" y="1.67" class="k"></text><use xlink:href="#5" y="2.171"/><use xlink:href="#6" y="4.342"/><use xlink:href="#7" y="6.513"/><use xlink:href="#8" y="8.684"/><use xlink:href="#9" y="10.855"/><use xlink:href="#10" y="13.026"/><use xlink:href="#11" y="17.368"/><use xlink:href="#12" y="19.539"/><use xlink:href="#13" y="43.42"/><use xlink:href="#37" y="45.591"/></svg><svg x="3840"><use xlink:href="#a"/><use xlink:href="#b" x="-.004"/></svg></svg></g></g></svg></svg>