<svg xmlns="http://www.w3.org/2000/svg" xmlns:xlink="http://www.w3.org/1999/xlink" width="840" height="537.62"><rect width="840" height="537.62" rx="5" ry="5" class="a"/><svg y="0%" x="0%"><circle cx="20" cy="20" r="6" fill="#ff5f58"/><circle cx="40" cy="20" r="6" fill="#ffbd2e"/><circle cx="60" cy="20" r="6" fill="#18c132"/></svg><svg height="477.62" viewBox="0 0 80 47.762" width="800" x="15" xmlns="http://www.w3.org/2000/svg" xmlns:xlink="http://www.w3.org/1999/xlink" y="50"><style>@keyframes s{0%{transform:translateX(0)}.1%{transform:translateX(-160px)}.2%{transform:translateX(-240px)}.3%{transform:translateX(-320px)}.5%{transform:translateX(-560px)}.7%{transform:translateX(-720px)}3.4%{transform:translateX(-800px)}5.5%{transform:translateX(-880px)}7.2%{transform:translateX(-960px)}9%{transform:translateX(-1040px)}10.7%{transform:translateX(-1120px)}12.3%{transform:translateX(-1200px)}14%{transform:translateX(-1280px)}16.6%{transform:translateX(-1360px)}23.4%{transform:translateX(-1440px)}37.6%{transform:translateX(-1520px)}39.4%{transform:translateX(-1600px)}40.9%{transform:translateX(-1680px)}42.6%{transform:translateX(-1760px)}44.3%{transform:translateX(-1840px)}49.2%{transform:translateX(-1920px)}50.9%{transform:translateX(-2000px)}52.5%{transform:translateX(-2080px)}54.2%{transform:translateX(-2160px)}56.1%{transform:translateX(-2240px)}63.7%{transform:translateX(-2320px)}77.9%{transform:translateX(-2400px)}80.1%{transform:translateX(-2480px)}81.8%{transform:translateX(-2560px)}83.4%{transform:translateX(-2640px)}85.8%{transform:translateX(-2720px)}to{transform:translateX(-2800px)}}.a{fill:#282d35}.h,.i,.k,.l{fill:#0ff;white-space:pre}.i,.k,.l{fill:#b9c0cb}.k,.l{fill:#b0c4de}.l{fill:#ffa07a}.m{fill:#bfbfbf}.n,.o,.p{white-space:pre}.o{fill:#b9c0cb;font-weight:700}.p{fill:#ff7f24}</style><g font-family="Monaco,Consolas,Menlo,'Bitstream Vera Sans Mono','Powerline Symbols',monospace" font-size="1.67"><defs><symbol id="1"><path fill="#b9c0cb" d="M0 0h80v2.171H0z"/><text y="1.67" style="white-space:pre" fill="#282d35">File Edit Options Buffers Tools Python Help</text></symbol><symbol id="2"><text y="1.67" class="h">import</text><text x="7.014" y="1.67" class="i">os</text></symbol><symbol id="3"><text y="1.67" class="h">import</text><text x="7.014" y="1.67" class="i">sys</text></symbol><symbol id="4"><text y="1.67" class="h">import</text><text x="7.014" y="1.67" class="i">json</text></symbol><symbol id="5"><text y="1.67" class="h">import</text><text x="7.014" y="1.67" class="i">re</text></symbol><symbol id="6"><text y="1.67" class="h">import</text><text x="7.014" y="1.67" class="i">datetime</text></symbol><symbol id="7"><text y="1.67" class="h">from</text><text x="5.01" y="1.67" class="i">pathlib</text><text x="13.026" y="1.67" class="h">import</text><text x="20.04" y="1.67" class="i">Path</text></symbol><symbol id="8"><text y="1.67" class="h">from</text><text x="5.01" y="1.67" class="i">collections</text><text x="17.034" y="1.67" class="h">import</text><text x="24.048" y="1.67" class="i">defaultdict</text></symbol><symbol id="9"><text y="1.67" class="h">def</text><text x="4.008" y="1.67" style="white-space:pre" fill="#87cefa">main</text><text x="8.016" y="1.67" class="i">():</text></symbol><symbol id="10"><text x="4.008" y="1.67" class="k">print</text><text x="9.018" y="1.67" class="i">(</text><text x="10.02" y="1.67" class="l">&quot;Hello</text><text x="17.034" y="1.67" class="l">world!&quot;</text><text x="24.048" y="1.67" class="i">)</text></symbol><symbol id="11"><text y="1.67" class="h">if</text><text x="3.006" y="1.67" class="k">__name__</text><text x="12.024" y="1.67" class="i">==</text><text x="15.03" y="1.67" class="l">&quot;__main__&quot;</text><text x="25.05" y="1.67" class="i">:</text></symbol><symbol id="12"><text x="4.008" y="1.67" class="i">main()</text></symbol><symbol id="13"><path class="m" d="M0 0h14v2.171H0z"/><text y="1.67" class="n">-UU-:--- F1</text><path class="m" d="M14.028 0h12v2.171h-12z"/><text x="14.028" y="1.67" class="o">sample.py</text><path class="m" d="M26.052 0h54v2.171h-54z"/><text x="26.052" y="1.67" class="n">All L1 (Python HideImports ElDoc) -----------</text></symbol><symbol id="14"><path class="m" d="M0 0h14v2.171H0z"/><text y="1.67" class="n">-UU-:--- F1</text><path class="m" d="M14.028 0h12v2.171h-12z"/><text x="14.028" y="1.67" class="o">sample.py</text><path class="m" d="M26.052 0h54v2.171h-54z"/><text x="26.052" y="1.67" class="n">All L4 (Python HideImports ElDoc) -----------</text></symbol><symbol id="15"><path class="m" d="M0 0h14v2.171H0z"/><text y="1.67" class="n">-UU-:--- F1</text><path class="m" d="M14.028 0h12v2.171h-12z"/><text x="14.028" y="1.67" class="o">sample.py</text><path class="m" d="M26.052 0h54v2.171h-54z"/><text x="26.052" y="1.67" class="n">All L5 (Python HideImports ElDoc) -----------</text></symbol><symbol id="16"><path class="m" d="M0 0h14v2.171H0z"/><text y="1.67" class="n">-UU-:--- F1</text><path class="m" d="M14.028 0h12v2.171h-12z"/><text x="14.028" y="1.67" class="o">sample.py</text><path class="m" d="M26.052 0h54v2.171h-54z"/><text x="26.052" y="1.67" class="n">All L6 (Python HideImports ElDoc) -----------</text></symbol><symbol id="17"><path class="m" d="M0 0h14v2.171H0z"/><text y="1.67" class="n">-UU-:--- F1</text><path class="m" d="M14.028 0h12v2.171h-12z"/><text x="14.028" y="1.67" class="o">sample.py</text><path class="m" d="M26.052 0h54v2.171h-54z"/><text x="26.052" y="1.67" class="n">All L7 (Python HideImports ElDoc) -----------</text></symbol><symbol id="18"><path class="m" d="M0 0h14v2.171H0z"/><text y="1.67" class="n">-UU-:--- F1</text><path class="m" d="M14.028 0h12v2.171h-12z"/><text x="14.028" y="1.67" class="o">sample.py</text><path class="m" d="M26.052 0h54v2.171h-54z"/><text x="26.052" y="1.67" class="n">All L8 (Python HideImports ElDoc) -----------</text></symbol><symbol id="19"><path class="m" d="M0 0h14v2.171H0z"/><text y="1.67" class="n">-UU-:--- F1</text><path class="m" d="M14.028 0h12v2.171h-12z"/><text x="14.028" y="1.67" class="o">sample.py</text><path class="m" d="M26.052 0h54v2.171h-54z"/><text x="26.052" y="1.67" class="n">All L9 (Python HideImports ElDoc) -----------</text></symbol><symbol id="20"><text y="1.67" class="p">[7</text><text x="3.006" y="1.67" class="p">hidden</text><text x="10.02" y="1.67" class="p">import</text><text x="17.034" y="1.67" class="p">lines]</text></symbol><symbol id="a"><path fill="transparent" d="M0 0h80v22H0z"/></symbol><symbol id="b"><path fill="#6f7683" d="M0 0h1.102v2.171H0z"/></symbol></defs><path class="a" d="M0 0h80v47.762H0z"/><g style="animation-duration:10.553773s;animation-iteration-count:infinite;animation-name:s;animation-timing-function:steps(1,end)"><svg width="2880"><svg><use xlink:href="#a"/><use xlink:href="#b" x="-.004"/></svg><svg x="80"><use xlink:href="#a"/><use xlink:href="#b" x="-.004"/></svg><svg x="160"><use xlink:href="#a"/><use xlink:href="#b" x="-.004"/></svg><svg x="240"><use xlink:href="#a"/><use xlink:href="#b" x="-.004"/></svg><svg x="320"><use xlink:href="#a"/><use xlink:href="#b" x="-.004"/></svg><svg x="400"><use xlink:href="#a"/><use xlink:href="#b" x="-.004"/></svg><svg x="480"><use xlink:href="#a"/><use xlink:href="#b" x="-.004"/></svg><svg x="560"><use xlink:href="#a"/><use xlink:href="#b" x="-.004" y="2.146"/><path class="m" d="M0 43.42h26v2.171H0z"/><text y="45.09" style="white-space:pre" fill="#b9c0cb" font-weight="700" text-decoration="underline">-UUU:--- F1 *scratch*</text><path class="m" d="M26.052 43.42h54v2.171h-54z"/><text x="26.052" y="45.09" class="n">All L1 (Lisp Interaction ElDoc) -------------</text></svg><svg x="640"><use xlink:href="#a"/><use xlink:href="#b" x="-.004" y="2.146"/><use xlink:href="#1"/><use xlink:href="#2" y="2.171"/><use xlink:href="#3" y="4.342"/><use xlink:href="#4" y="6.513"/><use xlink:href="#5" y="8.684"/><use xlink:href="#6" y="10.855"/><use xlink:href="#7" y="13.026"/><use xlink:href="#8" y="15.197"/><use xlink:href="#9" y="19.539"/><use xlink:href="#10" y="21.71"/><use xlink:href="#11" y="26.052"/><use xlink:href="#12" y="28.223"/><use xlink:href="#13" y="43.42"/><text y="47.261" class="i">For</text><text x="4.008" y="47.261" class="i">information</text><text x="16.032" y="47.261" class="i">about</text><text x="22.044" y="47.261" class="i">GNU</text><text x="26.052" y="47.261" class="i">Emacs</text><text x="32.064" y="47.261" class="i">and</text><text x="36.072" y="47.261" class="i">the</text><text x="40.08" y="47.261" class="i">GNU</text><text x="44.088" y="47.261" class="i">system,</text><text x="52.104" y="47.261" class="i">type</text><path fill="#303030" d="M57.114 45.591h7v2.171h-7z"/><text x="57.114" y="47.261" style="white-space:pre" fill="#add8e6">C-h C-a</text><text x="64.128" y="47.261" class="i">.</text></svg><svg x="720"><use xlink:href="#a"/><use xlink:href="#b" x="-.004" y="2.146"/><use xlink:href="#1"/><use xlink:href="#2" y="2.171"/><use xlink:href="#3" y="4.342"/><use xlink:href="#4" y="6.513"/><use xlink:href="#5" y="8.684"/><use xlink:href="#6" y="10.855"/><use xlink:href="#7" y="13.026"/><use xlink:href="#8" y="15.197"/><use xlink:href="#9" y="19.539"/><use xlink:href="#10" y="21.71"/><use xlink:href="#11" y="26.052"/><use xlink:href="#12" y="28.223"/><use xlink:href="#13" y="43.42"/></svg><svg x="800"><use xlink:href="#a"/><use xlink:href="#b" x="-.004" y="4.317"/><use xlink:href="#1"/><use xlink:href="#2" y="2.171"/><use xlink:href="#3" y="4.342"/><use xlink:href="#4" y="6.513"/><use xlink:href="#5" y="8.684"/><use xlink:href="#6" y="10.855"/><use xlink:href="#7" y="13.026"/><use xlink:href="#8" y="15.197"/><use xlink:href="#9" y="19.539"/><use xlink:href="#10" y="21.71"/><use xlink:href="#11" y="26.052"/><use xlink:href="#12" y="28.223"/><path class="m" d="M0 43.42h14v2.171H0z"/><text y="45.09" class="n">-UU-:--- F1</text><path class="m" d="M14.028 43.42h12v2.171h-12z"/><text x="14.028" y="45.09" class="o">sample.py</text><path class="m" d="M26.052 43.42h54v2.171h-54z"/><text x="26.052" y="45.09" class="n">All L2 (Python HideImports ElDoc) -----------</text></svg><svg x="880"><use xlink:href="#a"/><use xlink:href="#b" x="-.004" y="6.488"/><use xlink:href="#1"/><use xlink:href="#2" y="2.171"/><use xlink:href="#3" y="4.342"/><use xlink:href="#4" y="6.513"/><use xlink:href="#5" y="8.684"/><use xlink:href="#6" y="10.855"/><use xlink:href="#7" y="13.026"/><use xlink:href="#8" y="15.197"/><use xlink:href="#9" y="19.539"/><use xlink:href="#10" y="21.71"/><use xlink:href="#11" y="26.052"/><use xlink:href="#12" y="28.223"/><path class="m" d="M0 43.42h14v2.171H0z"/><text y="45.09" class="n">-UU-:--- F1</text><path class="m" d="M14.028 43.42h12v2.171h-12z"/><text x="14.028" y="45.09" class="o">sample.py</text><path class="m" d="M26.052 43.42h54v2.171h-54z"/><text x="26.052" y="45.09" class="n">All L3 (Python HideImports ElDoc) -----------</text></svg><svg x="960"><use xlink:href="#a"/><use xlink:href="#b" x="-.004" y="8.659"/><use xlink:href="#1"/><use xlink:href="#2" y="2.171"/><use xlink:href="#3" y="4.342"/><use xlink:href="#4" y="6.513"/><use xlink:href="#5" y="8.684"/><use xlink:href="#6" y="10.855"/><use xlink:href="#7" y="13.026"/><use xlink:href="#8" y="15.197"/><use xlink:href="#9" y="19.539"/><use xlink:href="#10" y="21.71"/><use xlink:href="#11" y="26.052"/><use xlink:href="#12" y="28.223"/><use xlink:href="#14" y="43.42"/></svg><svg x="1040"><use xlink:href="#a"/><use xlink:href="#b" x="-.004" y="10.83"/><use xlink:href="#1"/><use xlink:href="#2" y="2.171"/><use xlink:href="#3" y="4.342"/><use xlink:href="#4" y="6.513"/><use xlink:href="#5" y="8.684"/><use xlink:href="#6" y="10.855"/><use xlink:href="#7" y="13.026"/><use xlink:href="#8" y="15.197"/><use xlink:href="#9" y="19.539"/><use xlink:href="#10" y="21.71"/><use xlink:href="#11" y="26.052"/><use xlink:href="#12" y="28.223"/><use xlink:href="#15" y="43.42"/></svg><svg x="1120"><use xlink:href="#a"/><use xlink:href="#b" x="-.004" y="13.001"/><use xlink:href="#1"/><use xlink:href="#2" y="2.171"/><use xlink:href="#3" y="4.342"/><use xlink:href="#4" y="6.513"/><use xlink:href="#5" y="8.684"/><use xlink:href="#6" y="10.855"/><use xlink:href="#7" y="13.026"/><use xlink:href="#8" y="15.197"/><use xlink:href="#9" y="19.539"/><use xlink:href="#10" y="21.71"/><use xlink:href="#11" y="26.052"/><use xlink:href="#12" y="28.223"/><use xlink:href="#16" y="43.42"/></svg><svg x="1200"><use xlink:href="#a"/><use xlink:href="#b" x="-.004" y="15.172"/><use xlink:href="#1"/><use xlink:href="#2" y="2.171"/><use xlink:href="#3" y="4.342"/><use xlink:href="#4" y="6.513"/><use xlink:href="#5" y="8.684"/><use xlink:href="#6" y="10.855"/><use xlink:href="#7" y="13.026"/><use xlink:href="#8" y="15.197"/><use xlink:href="#9" y="19.539"/><use xlink:href="#10" y="21.71"/><use xlink:href="#11" y="26.052"/><use xlink:href="#12" y="28.223"/><use xlink:href="#17" y="43.42"/></svg><svg x="1280"><use xlink:href="#a"/><use xlink:href="#b" x="-.004" y="17.343"/><use xlink:href="#1"/><use xlink:href="#2" y="2.171"/><use xlink:href="#3" y="4.342"/><use xlink:href="#4" y="6.513"/><use xlink:href="#5" y="8.684"/><use xlink:href="#6" y="10.855"/><use xlink:href="#7" y="13.026"/><use xlink:href="#8" y="15.197"/><use xlink:href="#9" y="19.539"/><use xlink:href="#10" y="21.71"/><use xlink:href="#11" y="26.052"/><use xlink:href="#12" y="28.223"/><use xlink:href="#18" y="43.42"/></svg><svg x="1360"><use xlink:href="#a"/><use xlink:href="#b" x="-.004" y="19.514"/><use xlink:href="#1"/><use xlink:href="#2" y="2.171"/><use xlink:href="#3" y="4.342"/><use xlink:href="#4" y="6.513"/><use xlink:href="#5" y="8.684"/><use xlink:href="#6" y="10.855"/><use xlink:href="#7" y="13.026"/><use xlink:href="#8" y="15.197"/><use xlink:href="#9" y="19.539"/><use xlink:href="#10" y="21.71"/><use xlink:href="#11" y="26.052"/><use xlink:href="#12" y="28.223"/><use xlink:href="#19" y="43.42"/></svg><svg x="1440"><use xlink:href="#a"/><use xlink:href="#b" x="-.004" y="6.488"/><use xlink:href="#1"/><use xlink:href="#20" y="2.171"/><use xlink:href="#9" y="6.513"/><use xlink:href="#10" y="8.684"/><use xlink:href="#11" y="13.026"/><use xlink:href="#12" y="15.197"/><use xlink:href="#19" y="43.42"/></svg><svg x="1520"><use xlink:href="#a"/><use xlink:href="#b" x="-.004" y="4.317"/><use xlink:href="#1"/><use xlink:href="#20" y="2.171"/><use xlink:href="#9" y="6.513"/><use xlink:href="#10" y="8.684"/><use xlink:href="#11" y="13.026"/><use xlink:href="#12" y="15.197"/><use xlink:href="#18" y="43.42"/></svg><svg x="1600"><use xlink:href="#a"/><use xlink:href="#b" x="-.004" y="15.172"/><use xlink:href="#1"/><use xlink:href="#2" y="2.171"/><use xlink:href="#3" y="4.342"/><use xlink:href="#4" y="6.513"/><use xlink:href="#5" y="8.684"/><use xlink:href="#6" y="10.855"/><use xlink:href="#7" y="13.026"/><use xlink:href="#8" y="15.197"/><use xlink:href="#9" y="19.539"/><use xlink:href="#10" y="21.71"/><use xlink:href="#11" y="26.052"/><use xlink:href="#12" y="28.223"/><use xlink:href="#17" y="43.42"/></svg><svg x="1680"><use xlink:href="#a"/><use xlink:href="#b" x="-.004" y="13.001"/><use xlink:href="#1"/><use xlink:href="#2" y="2.171"/><use xlink:href="#3" y="4.342"/><use xlink:href="#4" y="6.513"/><use xlink:href="#5" y="8.684"/><use xlink:href="#6" y="10.855"/><use xlink:href="#7" y="13.026"/><use xlink:href="#8" y="15.197"/><use xlink:href="#9" y="19.539"/><use xlink:href="#10" y="21.71"/><use xlink:href="#11" y="26.052"/><use xlink:href="#12" y="28.223"/><use xlink:href="#16" y="43.42"/></svg><svg x="1760"><use xlink:href="#a"/><use xlink:href="#b" x="-.004" y="10.83"/><use xlink:href="#1"/><use xlink:href="#2" y="2.171"/><use xlink:href="#3" y="4.342"/><use xlink:href="#4" y="6.513"/><use xlink:href="#5" y="8.684"/><use xlink:href="#6" y="10.855"/><use xlink:href="#7" y="13.026"/><use xlink:href="#8" y="15.197"/><use xlink:href="#9" y="19.539"/><use xlink:href="#10" y="21.71"/><use xlink:href="#11" y="26.052"/><use xlink:href="#12" y="28.223"/><use xlink:href="#15" y="43.42"/></svg><svg x="1840"><use xlink:href="#a"/><use xlink:href="#b" x="-.004" y="8.659"/><use xlink:href="#1"/><use xlink:href="#2" y="2.171"/><use xlink:href="#3" y="4.342"/><use xlink:href="#4" y="6.513"/><use xlink:href="#5" y="8.684"/><use xlink:href="#6" y="10.855"/><use xlink:href="#7" y="13.026"/><use xlink:href="#8" y="15.197"/><use xlink:href="#9" y="19.539"/><use xlink:href="#10" y="21.71"/><use xlink:href="#11" y="26.052"/><use xlink:href="#12" y="28.223"/><use xlink:href="#14" y="43.42"/></svg><svg x="1920"><use xlink:href="#a"/><use xlink:href="#b" x="-.004" y="10.83"/><use xlink:href="#1"/><use xlink:href="#2" y="2.171"/><use xlink:href="#3" y="4.342"/><use xlink:href="#4" y="6.513"/><use xlink:href="#5" y="8.684"/><use xlink:href="#6" y="10.855"/><use xlink:href="#7" y="13.026"/><use xlink:href="#8" y="15.197"/><use xlink:href="#9" y="19.539"/><use xlink:href="#10" y="21.71"/><use xlink:href="#11" y="26.052"/><use xlink:href="#12" y="28.223"/><use xlink:href="#15" y="43.42"/></svg><svg x="2000"><use xlink:href="#a"/><use xlink:href="#b" x="-.004" y="13.001"/><use xlink:href="#1"/><use xlink:href="#2" y="2.171"/><use xlink:href="#3" y="4.342"/><use xlink:href="#4" y="6.513"/><use xlink:href="#5" y="8.684"/><use xlink:href="#6" y="10.855"/><use xlink:href="#7" y="13.026"/><use xlink:href="#8" y="15.197"/><use xlink:href="#9" y="19.539"/><use xlink:href="#10" y="21.71"/><use xlink:href="#11" y="26.052"/><use xlink:href="#12" y="28.223"/><use xlink:href="#16" y="43.42"/></svg><svg x="2080"><use xlink:href="#a"/><use xlink:href="#b" x="-.004" y="15.172"/><use xlink:href="#1"/><use xlink:href="#2" y="2.171"/><use xlink:href="#3" y="4.342"/><use xlink:href="#4" y="6.513"/><use xlink:href="#5" y="8.684"/><use xlink:href="#6" y="10.855"/><use xlink:href="#7" y="13.026"/><use xlink:href="#8" y="15.197"/><use xlink:href="#9" y="19.539"/><use xlink:href="#10" y="21.71"/><use xlink:href="#11" y="26.052"/><use xlink:href="#12" y="28.223"/><use xlink:href="#17" y="43.42"/></svg><svg x="2160"><use xlink:href="#a"/><use xlink:href="#b" x="-.004" y="17.343"/><use xlink:href="#1"/><use xlink:href="#2" y="2.171"/><use xlink:href="#3" y="4.342"/><use xlink:href="#4" y="6.513"/><use xlink:href="#5" y="8.684"/><use xlink:href="#6" y="10.855"/><use xlink:href="#7" y="13.026"/><use xlink:href="#8" y="15.197"/><use xlink:href="#9" y="19.539"/><use xlink:href="#10" y="21.71"/><use xlink:href="#11" y="26.052"/><use xlink:href="#12" y="28.223"/><use xlink:href="#18" y="43.42"/></svg><svg x="2240"><use xlink:href="#a"/><use xlink:href="#b" x="-.004" y="19.514"/><use xlink:href="#1"/><use xlink:href="#2" y="2.171"/><use xlink:href="#3" y="4.342"/><use xlink:href="#4" y="6.513"/><use xlink:href="#5" y="8.684"/><use xlink:href="#6" y="10.855"/><use xlink:href="#7" y="13.026"/><use xlink:href="#8" y="15.197"/><use xlink:href="#9" y="19.539"/><use xlink:href="#10" y="21.71"/><use xlink:href="#11" y="26.052"/><use xlink:href="#12" y="28.223"/><use xlink:href="#19" y="43.42"/></svg><svg x="2320"><use xlink:href="#a"/><use xlink:href="#b" x="-.004" y="6.488"/><use xlink:href="#1"/><use xlink:href="#20" y="2.171"/><use xlink:href="#9" y="6.513"/><use xlink:href="#10" y="8.684"/><use xlink:href="#11" y="13.026"/><use xlink:href="#12" y="15.197"/><use xlink:href="#19" y="43.42"/></svg><svg x="2400"><use xlink:href="#a"/><use xlink:href="#b" x="-.004" y="4.317"/><use xlink:href="#1"/><use xlink:href="#20" y="2.171"/><use xlink:href="#9" y="6.513"/><use xlink:href="#10" y="8.684"/><use xlink:href="#11" y="13.026"/><use xlink:href="#12" y="15.197"/><use xlink:href="#18" y="43.42"/></svg><svg x="2480"><use xlink:href="#a"/><use xlink:href="#b" x="-.004" y="15.172"/><use xlink:href="#1"/><use xlink:href="#2" y="2.171"/><use xlink:href="#3" y="4.342"/><use xlink:href="#4" y="6.513"/><use xlink:href="#5" y="8.684"/><use xlink:href="#6" y="10.855"/><use xlink:href="#7" y="13.026"/><use xlink:href="#8" y="15.197"/><use xlink:href="#9" y="19.539"/><use xlink:href="#10" y="21.71"/><use xlink:href="#11" y="26.052"/><use xlink:href="#12" y="28.223"/><use xlink:href="#17" y="43.42"/></svg><svg x="2560"><use xlink:href="#a"/><use xlink:href="#b" x="-.004" y="13.001"/><use xlink:href="#1"/><use xlink:href="#2" y="2.171"/><use xlink:href="#3" y="4.342"/><use xlink:href="#4" y="6.513"/><use xlink:href="#5" y="8.684"/><use xlink:href="#6" y="10.855"/><use xlink:href="#7" y="13.026"/><use xlink:href="#8" y="15.197"/><use xlink:href="#9" y="19.539"/><use xlink:href="#10" y="21.71"/><use xlink:href="#11" y="26.052"/><use xlink:href="#12" y="28.223"/><use xlink:href="#16" y="43.42"/></svg><svg x="2640"><use xlink:href="#a"/><use xlink:href="#b" x="-.004" y="10.83"/><use xlink:href="#1"/><use xlink:href="#2" y="2.171"/><use xlink:href="#3" y="4.342"/><use xlink:href="#4" y="6.513"/><use xlink:href="#5" y="8.684"/><use xlink:href="#6" y="10.855"/><use xlink:href="#7" y="13.026"/><use xlink:href="#8" y="15.197"/><use xlink:href="#9" y="19.539"/><use xlink:href="#10" y="21.71"/><use xlink:href="#11" y="26.052"/><use xlink:href="#12" y="28.223"/><use xlink:href="#15" y="43.42"/></svg><svg x="2720"><use xlink:href="#a"/><use xlink:href="#b" x="-.004" y="8.659"/><use xlink:href="#1"/><use xlink:href="#2" y="2.171"/><use xlink:href="#3" y="4.342"/><use xlink:href="#4" y="6.513"/><use xlink:href="#5" y="8.684"/><use xlink:href="#6" y="10.855"/><use xlink:href="#7" y="13.026"/><use xlink:href="#8" y="15.197"/><use xlink:href="#9" y="19.539"/><use xlink:href="#10" y="21.71"/><use xlink:href="#11" y="26.052"/><use xlink:href="#12" y="28.223"/><use xlink:href="#14" y="43.42"/></svg><svg x="2800"><use xlink:href="#a"/><use xlink:href="#b" x="-.004"/></svg></svg></g></g></svg></svg>